<?xml version="1.0" encoding="UTF-8" standalone="no"?>
<!DOCTYPE svg PUBLIC "-//W3C//DTD SVG 1.1//EN"
 "http://www.w3.org/Graphics/SVG/1.1/DTD/svg11.dtd">
<!-- Generated by graphviz version 2.43.0 (0)
 -->
<!-- Title: workflow Pages: 1 -->
<svg width="620pt" height="976pt"
 viewBox="0.00 0.00 620.00 976.00" xmlns="http://www.w3.org/2000/svg" xmlns:xlink="http://www.w3.org/1999/xlink">
<g id="graph0" class="graph" transform="scale(1 1) rotate(0) translate(4 972)">
<title>workflow</title>
<polygon fill="white" stroke="transparent" points="-4,4 -4,-972 616,-972 616,4 -4,4"/>
<text text-anchor="start" x="256" y="-8.8" font-family="Times,serif" font-weight="bold" font-size="14.00">BundleWorkflow</text>
<!-- place_new -->
<g id="node1" class="node">
<title>place_new</title>
<ellipse fill="lightgreen" stroke="lightBlue" cx="430" cy="-923" rx="72" ry="36"/>
<text text-anchor="start" x="422" y="-925.6" font-family="Arial" font-weight="bold" font-size="8.00">new</text>
<text text-anchor="start" x="395" y="-917.6" font-family="Arial" font-style="italic" font-size="8.00">basic from app:load</text>
<text text-anchor="middle" x="251.5" y="-961.6" font-family="Arial" font-size="8.00">Place new: load from https://packagist.org/packages/list.json</text>
</g>
<!-- transition_load -->
<g id="node9" class="node">
<title>transition_load</title>
<polygon fill="lightBlue" stroke="lightBlue" points="412,-851 268,-851 268,-779 412,-779 412,-851"/>
<text text-anchor="start" x="331" y="-814.1" font-family="Arial" font-weight="bold" font-size="8.00">load</text>
<text text-anchor="middle" x="240" y="-853.6" font-family="Arial" font-size="8.00">Transition load: </text>
</g>
<!-- place_new&#45;&gt;transition_load -->
<!-- new -->
<g id="edge1" class="edge">
<title>place_new&#45;&gt;transition_load</title>
<path fill="none" stroke="#333333" d="M402.51,-889.62C393.22,-878.68 382.75,-866.35 373.08,-854.96"/>
<polygon fill="#333333" stroke="#333333" points="374.4,-853.81 369.83,-851.13 371.73,-856.07 374.4,-853.81"/>
</g>
<!-- transition_abandon -->
<g id="node10" class="node">
<title>transition_abandon</title>
<polygon fill="lightBlue" stroke="lightBlue" points="593,-851 449,-851 449,-779 593,-779 593,-851"/>
<text text-anchor="start" x="503" y="-817.6" font-family="Arial" font-weight="bold" font-size="8.00">abandon</text>
<text text-anchor="start" x="500.5" y="-809.6" font-family="Arial" text-decoration="underline" font-size="8.00">abandoned</text>
<text text-anchor="middle" x="412.5" y="-853.6" font-family="Arial" font-size="8.00">Transition abandon: </text>
</g>
<!-- place_new&#45;&gt;transition_abandon -->
<!-- new -->
<g id="edge7" class="edge">
<title>place_new&#45;&gt;transition_abandon</title>
<path fill="none" stroke="#333333" d="M457.8,-889.62C467.19,-878.68 477.77,-866.35 487.56,-854.96"/>
<polygon fill="#333333" stroke="#333333" points="488.91,-856.06 490.84,-851.13 486.26,-853.78 488.91,-856.06"/>
</g>
<!-- place_composer_loaded -->
<g id="node2" class="node">
<title>place_composer_loaded</title>
<ellipse fill="lightgreen" stroke="lightBlue" cx="340" cy="-707" rx="72" ry="36"/>
<text text-anchor="start" x="304.5" y="-709.6" font-family="Arial" font-weight="bold" font-size="8.00">composer_loaded</text>
<text text-anchor="start" x="314" y="-701.6" font-family="Arial" font-style="italic" font-size="8.00">composer.json</text>
<text text-anchor="middle" x="198.5" y="-745.6" font-family="Arial" font-size="8.00">Place composer_loaded: Loaded from </text>
</g>
<!-- transition_php_too_old -->
<g id="node12" class="node">
<title>transition_php_too_old</title>
<polygon fill="lightBlue" stroke="lightBlue" points="412,-635 268,-635 268,-563 412,-563 412,-635"/>
<text text-anchor="start" x="314" y="-605.6" font-family="Arial" font-weight="bold" font-size="8.00">php_too_old</text>
<text text-anchor="start" x="309.5" y="-597.6" font-family="Arial" text-decoration="underline" font-size="8.00">!ValidPhpVersion</text>
<text text-anchor="start" x="319" y="-589.6" font-family="Arial" font-style="italic" font-size="8.00">PHP &lt; 8.1?</text>
<text text-anchor="middle" x="225.5" y="-637.6" font-family="Arial" font-size="8.00">Transition php_too_old: </text>
</g>
<!-- place_composer_loaded&#45;&gt;transition_php_too_old -->
<!-- composer_loaded -->
<g id="edge11" class="edge">
<title>place_composer_loaded&#45;&gt;transition_php_too_old</title>
<path fill="none" stroke="#333333" d="M340,-671C340,-661.24 340,-650.56 340,-640.51"/>
<polygon fill="#333333" stroke="#333333" points="341.75,-640.33 340,-635.33 338.25,-640.33 341.75,-640.33"/>
</g>
<!-- transition_php_okay -->
<g id="node13" class="node">
<title>transition_php_okay</title>
<polygon fill="lightBlue" stroke="lightBlue" points="250,-635 106,-635 106,-563 250,-563 250,-635"/>
<text text-anchor="start" x="158" y="-605.6" font-family="Arial" font-weight="bold" font-size="8.00">php_okay</text>
<text text-anchor="start" x="148.5" y="-597.6" font-family="Arial" text-decoration="underline" font-size="8.00">ValidPhpVersion</text>
<text text-anchor="start" x="155" y="-589.6" font-family="Arial" font-style="italic" font-size="8.00">PHP &gt;= 8.1?</text>
<text text-anchor="middle" x="68" y="-637.6" font-family="Arial" font-size="8.00">Transition php_okay: </text>
</g>
<!-- place_composer_loaded&#45;&gt;transition_php_okay -->
<!-- composer_loaded -->
<g id="edge13" class="edge">
<title>place_composer_loaded&#45;&gt;transition_php_okay</title>
<path fill="none" stroke="#333333" d="M297.01,-677.87C278.28,-665.62 256.05,-651.07 235.9,-637.88"/>
<polygon fill="#333333" stroke="#333333" points="236.77,-636.37 231.63,-635.09 234.86,-639.29 236.77,-636.37"/>
</g>
<!-- place_outdated_symfony -->
<g id="node3" class="node">
<title>place_outdated_symfony</title>
<ellipse fill="lightgreen" stroke="lightBlue" cx="178" cy="-275" rx="72" ry="36"/>
<text text-anchor="start" x="140.5" y="-277.6" font-family="Arial" font-weight="bold" font-size="8.00">outdated_symfony</text>
<text text-anchor="start" x="146" y="-269.6" font-family="Arial" font-style="italic" font-size="8.00">outdated symfony</text>
<text text-anchor="middle" x="60" y="-313.6" font-family="Arial" font-size="8.00">Place outdated_symfony: </text>
</g>
<!-- place_symfony_ok -->
<g id="node4" class="node">
<title>place_symfony_ok</title>
<ellipse fill="lightgreen" stroke="lightBlue" cx="340" cy="-275" rx="72" ry="36"/>
<text text-anchor="start" x="315.5" y="-277.6" font-family="Arial" font-weight="bold" font-size="8.00">symfony_ok</text>
<text text-anchor="start" x="285.5" y="-269.6" font-family="Arial" font-style="italic" font-size="8.00">works with supported Symfony</text>
<text text-anchor="middle" x="233.5" y="-313.6" font-family="Arial" font-size="8.00">Place symfony_ok: </text>
</g>
<!-- place_symfony_ok&#45;&gt;transition_load -->
<!-- symfony_ok -->
<g id="edge3" class="edge">
<title>place_symfony_ok&#45;&gt;transition_load</title>
<path fill="none" stroke="#333333" d="M383.32,-304.25C397.6,-315.79 412.08,-330.35 421,-347 451.26,-403.52 440,-425.89 440,-490 440,-600 440,-600 440,-600 440,-664.11 451.26,-686.48 421,-743 414.55,-755.04 405.19,-765.99 395.11,-775.49"/>
<polygon fill="#333333" stroke="#333333" points="393.86,-774.25 391.36,-778.92 396.23,-776.83 393.86,-774.25"/>
</g>
<!-- transition_valid -->
<g id="node11" class="node">
<title>transition_valid</title>
<polygon fill="lightBlue" stroke="lightBlue" points="331,-203 187,-203 187,-131 331,-131 331,-203"/>
<text text-anchor="start" x="249.5" y="-169.6" font-family="Arial" font-weight="bold" font-size="8.00">valid</text>
<text text-anchor="start" x="221" y="-161.6" font-family="Arial" text-decoration="underline" font-size="8.00">ValidSymfonyVersion</text>
<text text-anchor="middle" x="158.5" y="-205.6" font-family="Arial" font-size="8.00">Transition valid: </text>
</g>
<!-- place_symfony_ok&#45;&gt;transition_valid -->
<!-- symfony_ok -->
<g id="edge9" class="edge">
<title>place_symfony_ok&#45;&gt;transition_valid</title>
<path fill="none" stroke="#333333" d="M314.82,-241.04C306.63,-230.32 297.46,-218.33 288.95,-207.2"/>
<polygon fill="#333333" stroke="#333333" points="290.28,-206.05 285.85,-203.14 287.5,-208.18 290.28,-206.05"/>
</g>
<!-- place_abandoned -->
<g id="node5" class="node">
<title>place_abandoned</title>
<ellipse fill="lightgreen" stroke="lightBlue" cx="540" cy="-707" rx="72" ry="36"/>
<text text-anchor="start" x="517" y="-709.6" font-family="Arial" font-weight="bold" font-size="8.00">abandoned</text>
<text text-anchor="start" x="488.5" y="-701.6" font-family="Arial" font-style="italic" font-size="8.00">abandoned or misconfigured</text>
<text text-anchor="middle" x="434.5" y="-745.6" font-family="Arial" font-size="8.00">Place abandoned: </text>
</g>
<!-- place_valid -->
<g id="node6" class="node">
<title>place_valid</title>
<ellipse fill="lightgreen" stroke="lightBlue" cx="128" cy="-59" rx="72" ry="36"/>
<text text-anchor="start" x="118.5" y="-61.6" font-family="Arial" font-weight="bold" font-size="8.00">valid</text>
<text text-anchor="start" x="115" y="-53.6" font-family="Arial" font-style="italic" font-size="8.00">usable!</text>
<text text-anchor="middle" x="34.5" y="-97.6" font-family="Arial" font-size="8.00">Place valid: </text>
</g>
<!-- place_valid&#45;&gt;transition_load -->
<!-- valid -->
<g id="edge5" class="edge">
<title>place_valid&#45;&gt;transition_load</title>
<path fill="none" stroke="#333333" d="M114.73,-94.64C99.92,-136.48 78,-209.33 78,-274 78,-600 78,-600 78,-600 78,-696.26 185.4,-756.98 262.67,-788.21"/>
<polygon fill="#333333" stroke="#333333" points="262.42,-790 267.71,-790.23 263.72,-786.75 262.42,-790"/>
</g>
<!-- place_php_is_too_old -->
<g id="node7" class="node">
<title>place_php_is_too_old</title>
<ellipse fill="lightgreen" stroke="lightBlue" cx="340" cy="-491" rx="72" ry="36"/>
<text text-anchor="start" x="308.5" y="-490.1" font-family="Arial" font-weight="bold" font-size="8.00">php_is_too_old</text>
<text text-anchor="middle" x="227.5" y="-529.6" font-family="Arial" font-size="8.00">Place php_is_too_old: </text>
</g>
<!-- place_php_ok -->
<g id="node8" class="node">
<title>place_php_ok</title>
<ellipse fill="lightgreen" stroke="lightBlue" cx="178" cy="-491" rx="72" ry="36"/>
<text text-anchor="start" x="162.5" y="-490.1" font-family="Arial" font-weight="bold" font-size="8.00">php_ok</text>
<text text-anchor="middle" x="79.5" y="-529.6" font-family="Arial" font-size="8.00">Place php_ok: </text>
</g>
<!-- transition_symfony_outdated -->
<g id="node14" class="node">
<title>transition_symfony_outdated</title>
<polygon fill="lightBlue" stroke="lightBlue" points="250,-419 106,-419 106,-347 250,-347 250,-419"/>
<text text-anchor="start" x="140.5" y="-389.6" font-family="Arial" font-weight="bold" font-size="8.00">symfony_outdated</text>
<text text-anchor="start" x="139" y="-381.6" font-family="Arial" text-decoration="underline" font-size="8.00">!ValidSymfonyVersion</text>
<text text-anchor="start" x="150" y="-373.6" font-family="Arial" font-style="italic" font-size="8.00">Symfony &lt; 5.4?</text>
<text text-anchor="middle" x="53" y="-421.6" font-family="Arial" font-size="8.00">Transition symfony_outdated: </text>
</g>
<!-- place_php_ok&#45;&gt;transition_symfony_outdated -->
<!-- php_ok -->
<g id="edge15" class="edge">
<title>place_php_ok&#45;&gt;transition_symfony_outdated</title>
<path fill="none" stroke="#333333" d="M178,-455C178,-445.24 178,-434.56 178,-424.51"/>
<polygon fill="#333333" stroke="#333333" points="179.75,-424.33 178,-419.33 176.25,-424.33 179.75,-424.33"/>
</g>
<!-- transition_symfony_okay -->
<g id="node15" class="node">
<title>transition_symfony_okay</title>
<polygon fill="lightBlue" stroke="lightBlue" points="412,-419 268,-419 268,-347 412,-347 412,-419"/>
<text text-anchor="start" x="311" y="-389.6" font-family="Arial" font-weight="bold" font-size="8.00">symfony_okay</text>
<text text-anchor="start" x="302" y="-381.6" font-family="Arial" text-decoration="underline" font-size="8.00">ValidSymfonyVersion</text>
<text text-anchor="start" x="314" y="-373.6" font-family="Arial" font-style="italic" font-size="8.00">Symfony &gt; 5.4</text>
<text text-anchor="middle" x="222.5" y="-421.6" font-family="Arial" font-size="8.00">Transition symfony_okay: </text>
</g>
<!-- place_php_ok&#45;&gt;transition_symfony_okay -->
<!-- php_ok -->
<g id="edge17" class="edge">
<title>place_php_ok&#45;&gt;transition_symfony_okay</title>
<path fill="none" stroke="#333333" d="M220.99,-461.87C239.72,-449.62 261.95,-435.07 282.1,-421.88"/>
<polygon fill="#333333" stroke="#333333" points="283.14,-423.29 286.37,-419.09 281.23,-420.37 283.14,-423.29"/>
</g>
<!-- transition_load&#45;&gt;place_composer_loaded -->
<g id="edge2" class="edge">
<title>transition_load&#45;&gt;place_composer_loaded</title>
<path fill="none" stroke="#333333" d="M327.22,-779C326.39,-768.94 326.28,-757.91 326.89,-747.6"/>
<polygon fill="#333333" stroke="#333333" points="328.64,-747.72 327.25,-742.6 325.15,-747.47 328.64,-747.72"/>
</g>
<!-- transition_load&#45;&gt;place_composer_loaded -->
<g id="edge4" class="edge">
<title>transition_load&#45;&gt;place_composer_loaded</title>
<path fill="none" stroke="#333333" d="M340,-779C340,-769.24 340,-758.56 340,-748.51"/>
<polygon fill="#333333" stroke="#333333" points="341.75,-748.33 340,-743.33 338.25,-748.33 341.75,-748.33"/>
</g>
<!-- transition_load&#45;&gt;place_composer_loaded -->
<g id="edge6" class="edge">
<title>transition_load&#45;&gt;place_composer_loaded</title>
<path fill="none" stroke="#333333" d="M352.78,-779C353.61,-768.94 353.72,-757.91 353.11,-747.6"/>
<polygon fill="#333333" stroke="#333333" points="354.85,-747.47 352.75,-742.6 351.36,-747.72 354.85,-747.47"/>
</g>
<!-- transition_abandon&#45;&gt;place_abandoned -->
<g id="edge8" class="edge">
<title>transition_abandon&#45;&gt;place_abandoned</title>
<path fill="none" stroke="#333333" d="M527.27,-779C529.06,-769.05 531.01,-758.14 532.84,-747.92"/>
<polygon fill="#333333" stroke="#333333" points="534.57,-748.2 533.73,-742.97 531.13,-747.58 534.57,-748.2"/>
</g>
<!-- transition_valid&#45;&gt;place_valid -->
<g id="edge10" class="edge">
<title>transition_valid&#45;&gt;place_valid</title>
<path fill="none" stroke="#333333" d="M215.74,-131C200.76,-118.87 184.01,-105.32 169.19,-93.33"/>
<polygon fill="#333333" stroke="#333333" points="170.05,-91.78 165.07,-89.99 167.85,-94.5 170.05,-91.78"/>
</g>
<!-- transition_php_too_old&#45;&gt;place_php_is_too_old -->
<g id="edge12" class="edge">
<title>transition_php_too_old&#45;&gt;place_php_is_too_old</title>
<path fill="none" stroke="#333333" d="M340,-563C340,-553.24 340,-542.56 340,-532.51"/>
<polygon fill="#333333" stroke="#333333" points="341.75,-532.33 340,-527.33 338.25,-532.33 341.75,-532.33"/>
</g>
<!-- transition_php_okay&#45;&gt;place_php_ok -->
<g id="edge14" class="edge">
<title>transition_php_okay&#45;&gt;place_php_ok</title>
<path fill="none" stroke="#333333" d="M178,-563C178,-553.24 178,-542.56 178,-532.51"/>
<polygon fill="#333333" stroke="#333333" points="179.75,-532.33 178,-527.33 176.25,-532.33 179.75,-532.33"/>
</g>
<!-- transition_symfony_outdated&#45;&gt;place_outdated_symfony -->
<g id="edge16" class="edge">
<title>transition_symfony_outdated&#45;&gt;place_outdated_symfony</title>
<path fill="none" stroke="#333333" d="M178,-347C178,-337.24 178,-326.56 178,-316.51"/>
<polygon fill="#333333" stroke="#333333" points="179.75,-316.33 178,-311.33 176.25,-316.33 179.75,-316.33"/>
</g>
<!-- transition_symfony_okay&#45;&gt;place_symfony_ok -->
<g id="edge18" class="edge">
<title>transition_symfony_okay&#45;&gt;place_symfony_ok</title>
<path fill="none" stroke="#333333" d="M340,-347C340,-337.24 340,-326.56 340,-316.51"/>
<polygon fill="#333333" stroke="#333333" points="341.75,-316.33 340,-311.33 338.25,-316.33 341.75,-316.33"/>
</g>
</g>
</svg>
