<?xml version="1.0" encoding="UTF-8" standalone="no"?>
<!DOCTYPE svg PUBLIC "-//W3C//DTD SVG 1.1//EN"
 "http://www.w3.org/Graphics/SVG/1.1/DTD/svg11.dtd">
<!-- Generated by graphviz version 2.43.0 (0)
 -->
<!-- Title: workflow Pages: 1 -->
<svg width="712pt" height="976pt"
 viewBox="0.00 0.00 711.77 976.00" xmlns="http://www.w3.org/2000/svg" xmlns:xlink="http://www.w3.org/1999/xlink">
<g id="graph0" class="graph" transform="scale(1 1) rotate(0) translate(4 972)">
<title>workflow</title>
<polygon fill="white" stroke="transparent" points="-4,4 -4,-972 707.77,-972 707.77,4 -4,4"/>
<text text-anchor="start" x="301.88" y="-8.8" font-family="Times,serif" font-weight="bold" font-size="14.00">BundleWorkflow</text>
<!-- place_new -->
<g id="node1" class="node">
<title>place_new</title>
<ellipse fill="lightgreen" stroke="lightBlue" cx="508.77" cy="-923" rx="72" ry="36"/>
<text text-anchor="start" x="500.77" y="-925.6" font-family="Arial" font-weight="bold" font-size="8.00">new</text>
<text text-anchor="start" x="473.77" y="-917.6" font-family="Arial" font-style="italic" font-size="8.00">basic from app:load</text>
<text text-anchor="middle" x="330.27" y="-961.6" font-family="Arial" font-size="8.00">Place new: load from https://packagist.org/packages/list.json</text>
</g>
<!-- transition_load -->
<g id="node9" class="node">
<title>transition_load</title>
<polygon fill="lightBlue" stroke="lightBlue" points="499.77,-851 355.77,-851 355.77,-779 499.77,-779 499.77,-851"/>
<text text-anchor="start" x="418.77" y="-825.6" font-family="Arial" font-weight="bold" font-size="8.00">load</text>
<text text-anchor="start" x="381.77" y="-817.6" font-family="Arial" font-style="italic" font-size="8.00">details from packagist API</text>
<text text-anchor="start" x="392.27" y="-801.6" font-family="Arial" font-size="8.00">Via: load_composer</text>
<text text-anchor="middle" x="283.27" y="-853.6" font-family="Arial" font-size="8.00">Transition load: Slow but detailed API call</text>
</g>
<!-- place_new&#45;&gt;transition_load -->
<!-- new -->
<g id="edge1" class="edge">
<title>place_new&#45;&gt;transition_load</title>
<path fill="none" stroke="#333333" d="M483.58,-889.04C475.39,-878.32 466.22,-866.33 457.72,-855.2"/>
<polygon fill="#333333" stroke="#333333" points="459.05,-854.05 454.62,-851.14 456.27,-856.18 459.05,-854.05"/>
</g>
<!-- transition_abandon -->
<g id="node10" class="node">
<title>transition_abandon</title>
<polygon fill="lightBlue" stroke="lightBlue" points="682.77,-851 538.77,-851 538.77,-779 682.77,-779 682.77,-851"/>
<text text-anchor="start" x="592.77" y="-817.6" font-family="Arial" font-weight="bold" font-size="8.00">abandon</text>
<text text-anchor="start" x="590.27" y="-809.6" font-family="Arial" text-decoration="underline" font-size="8.00">abandoned</text>
<text text-anchor="middle" x="502.27" y="-853.6" font-family="Arial" font-size="8.00">Transition abandon: </text>
</g>
<!-- place_new&#45;&gt;transition_abandon -->
<!-- new -->
<g id="edge7" class="edge">
<title>place_new&#45;&gt;transition_abandon</title>
<path fill="none" stroke="#333333" d="M539.37,-890.2C550.02,-879.13 562.09,-866.59 573.24,-855"/>
<polygon fill="#333333" stroke="#333333" points="574.77,-855.93 576.98,-851.11 572.25,-853.5 574.77,-855.93"/>
</g>
<!-- place_composer_loaded -->
<g id="node2" class="node">
<title>place_composer_loaded</title>
<ellipse fill="lightgreen" stroke="lightBlue" cx="427.77" cy="-707" rx="75.54" ry="36"/>
<text text-anchor="start" x="392.27" y="-717.6" font-family="Arial" font-weight="bold" font-size="8.00">composer_loaded</text>
<text text-anchor="start" x="401.77" y="-709.6" font-family="Arial" font-style="italic" font-size="8.00">composer.json</text>
<text text-anchor="start" x="372.77" y="-693.6" font-family="Arial" font-size="8.00">Then: </text>
<text text-anchor="start" x="396.77" y="-693.6" font-family="Arial" text-decoration="underline" font-size="8.00">php_okay</text>
<text text-anchor="start" x="431.77" y="-693.6" font-family="Arial" font-size="8.00"> </text>
<text text-anchor="start" x="434.77" y="-693.6" font-family="Arial" text-decoration="underline" font-size="8.00">php_too_old</text>
<text text-anchor="start" x="479.77" y="-693.6" font-family="Arial" font-size="8.00"> </text>
<text text-anchor="middle" x="176" y="-745.6" font-family="Arial" font-size="8.00">Place composer_loaded: Loaded from /packages/%s.json on https://packagist.org/packages/list.json</text>
</g>
<!-- transition_php_too_old -->
<g id="node12" class="node">
<title>transition_php_too_old</title>
<polygon fill="lightBlue" stroke="lightBlue" points="501.77,-635 357.77,-635 357.77,-563 501.77,-563 501.77,-635"/>
<text text-anchor="start" x="403.77" y="-605.6" font-family="Arial" font-weight="bold" font-size="8.00">php_too_old</text>
<text text-anchor="start" x="399.27" y="-597.6" font-family="Arial" text-decoration="underline" font-size="8.00">!ValidPhpVersion</text>
<text text-anchor="start" x="408.77" y="-589.6" font-family="Arial" font-style="italic" font-size="8.00">PHP &lt; 8.1?</text>
<text text-anchor="middle" x="315.27" y="-637.6" font-family="Arial" font-size="8.00">Transition php_too_old: </text>
</g>
<!-- place_composer_loaded&#45;&gt;transition_php_too_old -->
<!-- composer_loaded -->
<g id="edge11" class="edge">
<title>place_composer_loaded&#45;&gt;transition_php_too_old</title>
<path fill="none" stroke="#333333" d="M428.43,-671C428.61,-661.24 428.81,-650.56 429,-640.51"/>
<polygon fill="#333333" stroke="#333333" points="430.76,-640.36 429.1,-635.33 427.26,-640.29 430.76,-640.36"/>
</g>
<!-- transition_php_okay -->
<g id="node13" class="node">
<title>transition_php_okay</title>
<polygon fill="lightBlue" stroke="lightBlue" points="327.77,-635 183.77,-635 183.77,-563 327.77,-563 327.77,-635"/>
<text text-anchor="start" x="235.77" y="-605.6" font-family="Arial" font-weight="bold" font-size="8.00">php_okay</text>
<text text-anchor="start" x="226.27" y="-597.6" font-family="Arial" text-decoration="underline" font-size="8.00">ValidPhpVersion</text>
<text text-anchor="start" x="232.77" y="-589.6" font-family="Arial" font-style="italic" font-size="8.00">PHP &gt;= 8.1?</text>
<text text-anchor="middle" x="145.77" y="-637.6" font-family="Arial" font-size="8.00">Transition php_okay: </text>
</g>
<!-- place_composer_loaded&#45;&gt;transition_php_okay -->
<!-- composer_loaded -->
<g id="edge13" class="edge">
<title>place_composer_loaded&#45;&gt;transition_php_okay</title>
<path fill="none" stroke="#333333" d="M382.13,-677.87C362.16,-665.57 338.44,-650.95 316.97,-637.72"/>
<polygon fill="#333333" stroke="#333333" points="317.89,-636.23 312.71,-635.09 316.05,-639.21 317.89,-636.23"/>
</g>
<!-- place_outdated_symfony -->
<g id="node3" class="node">
<title>place_outdated_symfony</title>
<ellipse fill="lightgreen" stroke="lightBlue" cx="230.77" cy="-275" rx="72" ry="36"/>
<text text-anchor="start" x="193.27" y="-277.6" font-family="Arial" font-weight="bold" font-size="8.00">outdated_symfony</text>
<text text-anchor="start" x="198.77" y="-269.6" font-family="Arial" font-style="italic" font-size="8.00">outdated symfony</text>
<text text-anchor="middle" x="112.77" y="-313.6" font-family="Arial" font-size="8.00">Place outdated_symfony: </text>
</g>
<!-- place_symfony_ok -->
<g id="node4" class="node">
<title>place_symfony_ok</title>
<ellipse fill="lightgreen" stroke="lightBlue" cx="392.77" cy="-275" rx="72" ry="36"/>
<text text-anchor="start" x="368.27" y="-277.6" font-family="Arial" font-weight="bold" font-size="8.00">symfony_ok</text>
<text text-anchor="start" x="338.27" y="-269.6" font-family="Arial" font-style="italic" font-size="8.00">works with supported Symfony</text>
<text text-anchor="middle" x="286.27" y="-313.6" font-family="Arial" font-size="8.00">Place symfony_ok: </text>
</g>
<!-- place_symfony_ok&#45;&gt;transition_load -->
<!-- symfony_ok -->
<g id="edge3" class="edge">
<title>place_symfony_ok&#45;&gt;transition_load</title>
<path fill="none" stroke="#333333" d="M433.02,-304.95C447.31,-316.74 462.61,-331.3 473.77,-347 513.52,-402.89 531.77,-421.42 531.77,-490 531.77,-600 531.77,-600 531.77,-600 531.77,-664.11 543.7,-686.84 512.77,-743 506.08,-755.15 496.41,-766.09 485.97,-775.54"/>
<polygon fill="#333333" stroke="#333333" points="484.69,-774.33 482.09,-778.95 487,-776.96 484.69,-774.33"/>
</g>
<!-- transition_valid -->
<g id="node11" class="node">
<title>transition_valid</title>
<polygon fill="lightBlue" stroke="lightBlue" points="383.77,-203 239.77,-203 239.77,-131 383.77,-131 383.77,-203"/>
<text text-anchor="start" x="302.27" y="-169.6" font-family="Arial" font-weight="bold" font-size="8.00">valid</text>
<text text-anchor="start" x="273.77" y="-161.6" font-family="Arial" text-decoration="underline" font-size="8.00">ValidSymfonyVersion</text>
<text text-anchor="middle" x="211.27" y="-205.6" font-family="Arial" font-size="8.00">Transition valid: </text>
</g>
<!-- place_symfony_ok&#45;&gt;transition_valid -->
<!-- symfony_ok -->
<g id="edge9" class="edge">
<title>place_symfony_ok&#45;&gt;transition_valid</title>
<path fill="none" stroke="#333333" d="M367.58,-241.04C359.39,-230.32 350.22,-218.33 341.72,-207.2"/>
<polygon fill="#333333" stroke="#333333" points="343.05,-206.05 338.62,-203.14 340.27,-208.18 343.05,-206.05"/>
</g>
<!-- place_php_is_too_old -->
<g id="node5" class="node">
<title>place_php_is_too_old</title>
<ellipse fill="lightgreen" stroke="lightBlue" cx="431.77" cy="-491" rx="72" ry="36"/>
<text text-anchor="start" x="400.27" y="-493.6" font-family="Arial" font-weight="bold" font-size="8.00">php_is_too_old</text>
<text text-anchor="start" x="406.27" y="-485.6" font-family="Arial" font-style="italic" font-size="8.00">outdated PHP</text>
<text text-anchor="middle" x="319.27" y="-529.6" font-family="Arial" font-size="8.00">Place php_is_too_old: </text>
</g>
<!-- place_php_ok -->
<g id="node6" class="node">
<title>place_php_ok</title>
<ellipse fill="lightgreen" stroke="lightBlue" cx="243.77" cy="-491" rx="98.04" ry="36"/>
<text text-anchor="start" x="228.27" y="-501.6" font-family="Arial" font-weight="bold" font-size="8.00">php_ok</text>
<text text-anchor="start" x="227.27" y="-493.6" font-family="Arial" font-style="italic" font-size="8.00">php okay</text>
<text text-anchor="start" x="170.27" y="-477.6" font-family="Arial" font-size="8.00">Then: </text>
<text text-anchor="start" x="194.27" y="-477.6" font-family="Arial" text-decoration="underline" font-size="8.00">symfony_okay</text>
<text text-anchor="start" x="245.27" y="-477.6" font-family="Arial" font-size="8.00"> </text>
<text text-anchor="start" x="248.27" y="-477.6" font-family="Arial" text-decoration="underline" font-size="8.00">symfony_outdated</text>
<text text-anchor="start" x="314.27" y="-477.6" font-family="Arial" font-size="8.00"> </text>
<text text-anchor="middle" x="119.25" y="-529.6" font-family="Arial" font-size="8.00">Place php_ok: </text>
</g>
<!-- transition_symfony_outdated -->
<g id="node14" class="node">
<title>transition_symfony_outdated</title>
<polygon fill="lightBlue" stroke="lightBlue" points="302.77,-419 158.77,-419 158.77,-347 302.77,-347 302.77,-419"/>
<text text-anchor="start" x="193.27" y="-389.6" font-family="Arial" font-weight="bold" font-size="8.00">symfony_outdated</text>
<text text-anchor="start" x="191.77" y="-381.6" font-family="Arial" text-decoration="underline" font-size="8.00">!ValidSymfonyVersion</text>
<text text-anchor="start" x="202.77" y="-373.6" font-family="Arial" font-style="italic" font-size="8.00">Symfony &lt; 5.4?</text>
<text text-anchor="middle" x="105.77" y="-421.6" font-family="Arial" font-size="8.00">Transition symfony_outdated: </text>
</g>
<!-- place_php_ok&#45;&gt;transition_symfony_outdated -->
<!-- php_ok -->
<g id="edge15" class="edge">
<title>place_php_ok&#45;&gt;transition_symfony_outdated</title>
<path fill="none" stroke="#333333" d="M239.48,-455C238.28,-445.24 236.97,-434.56 235.74,-424.51"/>
<polygon fill="#333333" stroke="#333333" points="237.45,-424.08 235.1,-419.33 233.97,-424.5 237.45,-424.08"/>
</g>
<!-- transition_symfony_okay -->
<g id="node15" class="node">
<title>transition_symfony_okay</title>
<polygon fill="lightBlue" stroke="lightBlue" points="464.77,-419 320.77,-419 320.77,-347 464.77,-347 464.77,-419"/>
<text text-anchor="start" x="363.77" y="-389.6" font-family="Arial" font-weight="bold" font-size="8.00">symfony_okay</text>
<text text-anchor="start" x="354.77" y="-381.6" font-family="Arial" text-decoration="underline" font-size="8.00">ValidSymfonyVersion</text>
<text text-anchor="start" x="366.77" y="-373.6" font-family="Arial" font-style="italic" font-size="8.00">Symfony &gt; 5.4</text>
<text text-anchor="middle" x="275.27" y="-421.6" font-family="Arial" font-size="8.00">Transition symfony_okay: </text>
</g>
<!-- place_php_ok&#45;&gt;transition_symfony_okay -->
<!-- php_ok -->
<g id="edge17" class="edge">
<title>place_php_ok&#45;&gt;transition_symfony_okay</title>
<path fill="none" stroke="#333333" d="M287.67,-458.77C303.81,-447.29 322.28,-434.15 339.18,-422.13"/>
<polygon fill="#333333" stroke="#333333" points="340.38,-423.42 343.44,-419.09 338.35,-420.57 340.38,-423.42"/>
</g>
<!-- place_abandoned -->
<g id="node7" class="node">
<title>place_abandoned</title>
<ellipse fill="lightgreen" stroke="lightBlue" cx="631.77" cy="-707" rx="72" ry="36"/>
<text text-anchor="start" x="608.77" y="-709.6" font-family="Arial" font-weight="bold" font-size="8.00">abandoned</text>
<text text-anchor="start" x="580.27" y="-701.6" font-family="Arial" font-style="italic" font-size="8.00">abandoned or misconfigured</text>
<text text-anchor="middle" x="526.27" y="-745.6" font-family="Arial" font-size="8.00">Place abandoned: </text>
</g>
<!-- place_valid -->
<g id="node8" class="node">
<title>place_valid</title>
<ellipse fill="lightgreen" stroke="lightBlue" cx="167.77" cy="-59" rx="72" ry="36"/>
<text text-anchor="start" x="158.27" y="-61.6" font-family="Arial" font-weight="bold" font-size="8.00">valid</text>
<text text-anchor="start" x="154.77" y="-53.6" font-family="Arial" font-style="italic" font-size="8.00">usable!</text>
<text text-anchor="middle" x="74.27" y="-97.6" font-family="Arial" font-size="8.00">Place valid: </text>
</g>
<!-- place_valid&#45;&gt;transition_load -->
<!-- valid -->
<g id="edge5" class="edge">
<title>place_valid&#45;&gt;transition_load</title>
<path fill="none" stroke="#333333" d="M154.5,-94.64C139.69,-136.48 117.77,-209.33 117.77,-274 117.77,-600 117.77,-600 117.77,-600 117.77,-712.92 258.78,-770.86 350.6,-796.63"/>
<polygon fill="#333333" stroke="#333333" points="350.19,-798.33 355.48,-797.98 351.13,-794.96 350.19,-798.33"/>
</g>
<!-- transition_load&#45;&gt;place_composer_loaded -->
<g id="edge2" class="edge">
<title>transition_load&#45;&gt;place_composer_loaded</title>
<path fill="none" stroke="#333333" d="M414.99,-779C414.15,-768.94 414.05,-757.91 414.66,-747.6"/>
<polygon fill="#333333" stroke="#333333" points="416.41,-747.72 415.02,-742.6 412.91,-747.47 416.41,-747.72"/>
</g>
<!-- transition_load&#45;&gt;place_composer_loaded -->
<g id="edge4" class="edge">
<title>transition_load&#45;&gt;place_composer_loaded</title>
<path fill="none" stroke="#333333" d="M427.77,-779C427.77,-769.24 427.77,-758.56 427.77,-748.51"/>
<polygon fill="#333333" stroke="#333333" points="429.52,-748.33 427.77,-743.33 426.02,-748.33 429.52,-748.33"/>
</g>
<!-- transition_load&#45;&gt;place_composer_loaded -->
<g id="edge6" class="edge">
<title>transition_load&#45;&gt;place_composer_loaded</title>
<path fill="none" stroke="#333333" d="M440.55,-779C441.38,-768.94 441.49,-757.91 440.88,-747.6"/>
<polygon fill="#333333" stroke="#333333" points="442.62,-747.47 440.52,-742.6 439.13,-747.72 442.62,-747.47"/>
</g>
<!-- transition_abandon&#45;&gt;place_abandoned -->
<g id="edge8" class="edge">
<title>transition_abandon&#45;&gt;place_abandoned</title>
<path fill="none" stroke="#333333" d="M617.7,-779C619.67,-769.05 621.84,-758.14 623.86,-747.92"/>
<polygon fill="#333333" stroke="#333333" points="625.59,-748.21 624.84,-742.97 622.15,-747.53 625.59,-748.21"/>
</g>
<!-- transition_valid&#45;&gt;place_valid -->
<g id="edge10" class="edge">
<title>transition_valid&#45;&gt;place_valid</title>
<path fill="none" stroke="#333333" d="M264.22,-131C247.3,-118.55 228.34,-104.59 211.74,-92.37"/>
<polygon fill="#333333" stroke="#333333" points="212.63,-90.85 207.57,-89.3 210.56,-93.67 212.63,-90.85"/>
</g>
<!-- transition_php_too_old&#45;&gt;place_php_is_too_old -->
<g id="edge12" class="edge">
<title>transition_php_too_old&#45;&gt;place_php_is_too_old</title>
<path fill="none" stroke="#333333" d="M430.43,-563C430.61,-553.24 430.81,-542.56 431,-532.51"/>
<polygon fill="#333333" stroke="#333333" points="432.76,-532.36 431.1,-527.33 429.26,-532.29 432.76,-532.36"/>
</g>
<!-- transition_php_okay&#45;&gt;place_php_ok -->
<g id="edge14" class="edge">
<title>transition_php_okay&#45;&gt;place_php_ok</title>
<path fill="none" stroke="#333333" d="M251.81,-563C250.7,-553.24 249.49,-542.56 248.36,-532.51"/>
<polygon fill="#333333" stroke="#333333" points="250.07,-532.1 247.77,-527.33 246.59,-532.49 250.07,-532.1"/>
</g>
<!-- transition_symfony_outdated&#45;&gt;place_outdated_symfony -->
<g id="edge16" class="edge">
<title>transition_symfony_outdated&#45;&gt;place_outdated_symfony</title>
<path fill="none" stroke="#333333" d="M230.77,-347C230.77,-337.24 230.77,-326.56 230.77,-316.51"/>
<polygon fill="#333333" stroke="#333333" points="232.52,-316.33 230.77,-311.33 229.02,-316.33 232.52,-316.33"/>
</g>
<!-- transition_symfony_okay&#45;&gt;place_symfony_ok -->
<g id="edge18" class="edge">
<title>transition_symfony_okay&#45;&gt;place_symfony_ok</title>
<path fill="none" stroke="#333333" d="M392.77,-347C392.77,-337.24 392.77,-326.56 392.77,-316.51"/>
<polygon fill="#333333" stroke="#333333" points="394.52,-316.33 392.77,-311.33 391.02,-316.33 394.52,-316.33"/>
</g>
</g>
</svg>
