<?xml version="1.0" encoding="UTF-8" standalone="no"?>
<!DOCTYPE svg PUBLIC "-//W3C//DTD SVG 1.1//EN"
 "http://www.w3.org/Graphics/SVG/1.1/DTD/svg11.dtd">
<!-- Generated by graphviz version 2.43.0 (0)
 -->
<!-- Title: workflow Pages: 1 -->
<svg width="1233pt" height="190pt"
 viewBox="0.00 0.00 1233.42 189.63" xmlns="http://www.w3.org/2000/svg" xmlns:xlink="http://www.w3.org/1999/xlink">
<g id="graph0" class="graph" transform="scale(1 1) rotate(0) translate(4 185.63)">
<title>workflow</title>
<polygon fill="white" stroke="transparent" points="-4,4 -4,-185.63 1229.42,-185.63 1229.42,4 -4,4"/>
<text text-anchor="start" x="547.71" y="-8.8" font-family="Times,serif" font-weight="bold" font-size="14.00">BundleWorkflow</text>
<!-- place_new -->
<g id="node1" class="node">
<title>place_new</title>
<ellipse fill="lightgreen" stroke="#333333" cx="52.99" cy="-74.63" rx="52.99" ry="18"/>
<text text-anchor="start" x="44.99" y="-77.23" font-family="Arial" font-weight="bold" font-size="8.00">new</text>
<text text-anchor="start" x="21.49" y="-69.23" font-family="Arial" font-style="italic" font-size="8.00">entity in database</text>
</g>
<!-- transition_0 -->
<g id="node9" class="node">
<title>transition_0</title>
<polygon fill="none" stroke="#333333" points="213.99,-120.63 141.99,-120.63 141.99,-84.63 213.99,-84.63 213.99,-120.63"/>
<text text-anchor="start" x="168.99" y="-101.73" font-family="Arial" font-weight="bold" font-size="8.00">load</text>
</g>
<!-- place_new&#45;&gt;transition_0 -->
<!-- new -->
<g id="edge1" class="edge">
<title>place_new&#45;&gt;transition_0</title>
<path fill="none" stroke="#333333" d="M97.36,-84.5C110.18,-87.42 124.16,-90.6 136.77,-93.47"/>
<polygon fill="#333333" stroke="#333333" points="136.45,-95.19 141.72,-94.6 137.23,-91.78 136.45,-95.19"/>
</g>
<!-- transition_2 -->
<g id="node11" class="node">
<title>transition_2</title>
<polygon fill="none" stroke="#333333" points="213.99,-65.63 141.99,-65.63 141.99,-29.63 213.99,-29.63 213.99,-65.63"/>
<text text-anchor="start" x="159.99" y="-50.23" font-family="Arial" font-weight="bold" font-size="8.00">abandon</text>
<text text-anchor="start" x="157.49" y="-42.23" font-family="Arial" text-decoration="underline" font-size="8.00">abandoned</text>
</g>
<!-- place_new&#45;&gt;transition_2 -->
<!-- new -->
<g id="edge5" class="edge">
<title>place_new&#45;&gt;transition_2</title>
<path fill="none" stroke="#333333" d="M98.05,-64.96C110.6,-62.2 124.2,-59.22 136.52,-56.51"/>
<polygon fill="#333333" stroke="#333333" points="137.2,-58.15 141.71,-55.37 136.45,-54.73 137.2,-58.15"/>
</g>
<!-- place_outdated_symfony -->
<g id="node2" class="node">
<title>place_outdated_symfony</title>
<ellipse fill="lightgreen" stroke="#333333" cx="817.36" cy="-163.63" rx="61.09" ry="18"/>
<text text-anchor="start" x="779.86" y="-166.23" font-family="Arial" font-weight="bold" font-size="8.00">outdated_symfony</text>
<text text-anchor="start" x="785.36" y="-158.23" font-family="Arial" font-style="italic" font-size="8.00">outdated symfony</text>
</g>
<!-- place_symfony_ok -->
<g id="node3" class="node">
<title>place_symfony_ok</title>
<ellipse fill="lightgreen" stroke="#333333" cx="817.36" cy="-104.63" rx="65.11" ry="22.76"/>
<text text-anchor="start" x="792.86" y="-111.23" font-family="Arial" font-weight="bold" font-size="8.00">symfony_ok</text>
<text text-anchor="start" x="779.36" y="-103.23" font-family="Arial" font-style="italic" font-size="8.00">works with supported</text>
<text text-anchor="start" x="801.86" y="-95.23" font-family="Arial" font-style="italic" font-size="8.00">Symfony</text>
</g>
<!-- transition_3 -->
<g id="node12" class="node">
<title>transition_3</title>
<polygon fill="none" stroke="#333333" points="1009.42,-120.63 918.42,-120.63 918.42,-84.63 1009.42,-84.63 1009.42,-120.63"/>
<text text-anchor="start" x="954.42" y="-105.23" font-family="Arial" font-weight="bold" font-size="8.00">valid</text>
<text text-anchor="start" x="926.42" y="-97.23" font-family="Arial" text-decoration="underline" font-size="8.00">ValidSymfonyVersion</text>
</g>
<!-- place_symfony_ok&#45;&gt;transition_3 -->
<!-- symfony_ok -->
<g id="edge7" class="edge">
<title>place_symfony_ok&#45;&gt;transition_3</title>
<path fill="none" stroke="#333333" d="M882.61,-103.74C892.88,-103.6 903.38,-103.45 913.24,-103.31"/>
<polygon fill="#333333" stroke="#333333" points="913.37,-105.06 918.34,-103.24 913.32,-101.56 913.37,-105.06"/>
</g>
<!-- place_abandoned -->
<g id="node4" class="node">
<title>place_abandoned</title>
<ellipse fill="lightgreen" stroke="#333333" cx="299.34" cy="-45.63" rx="47.25" ry="22.76"/>
<text text-anchor="start" x="276.34" y="-52.23" font-family="Arial" font-weight="bold" font-size="8.00">abandoned</text>
<text text-anchor="start" x="273.84" y="-44.23" font-family="Arial" font-style="italic" font-size="8.00">abandoned or</text>
<text text-anchor="start" x="274.34" y="-36.23" font-family="Arial" font-style="italic" font-size="8.00">misconfigured</text>
</g>
<!-- place_valid -->
<g id="node5" class="node">
<title>place_valid</title>
<ellipse fill="lightgreen" stroke="#333333" cx="1081.42" cy="-101.63" rx="36" ry="18"/>
<text text-anchor="start" x="1071.92" y="-104.23" font-family="Arial" font-weight="bold" font-size="8.00">valid</text>
<text text-anchor="start" x="1068.42" y="-96.23" font-family="Arial" font-style="italic" font-size="8.00">usable!</text>
</g>
<!-- transition_1 -->
<g id="node10" class="node">
<title>transition_1</title>
<polygon fill="none" stroke="#333333" points="1225.42,-94.63 1153.42,-94.63 1153.42,-58.63 1225.42,-58.63 1225.42,-94.63"/>
<text text-anchor="start" x="1180.42" y="-75.73" font-family="Arial" font-weight="bold" font-size="8.00">load</text>
</g>
<!-- place_valid&#45;&gt;transition_1 -->
<!-- valid -->
<g id="edge3" class="edge">
<title>place_valid&#45;&gt;transition_1</title>
<path fill="none" stroke="#333333" d="M1114.22,-94.13C1124.9,-91.61 1136.96,-88.76 1148.2,-86.11"/>
<polygon fill="#333333" stroke="#333333" points="1148.84,-87.76 1153.3,-84.91 1148.03,-84.35 1148.84,-87.76"/>
</g>
<!-- place_composer_loaded -->
<g id="node6" class="node">
<title>place_composer_loaded</title>
<ellipse fill="lightgreen" stroke="#333333" cx="299.34" cy="-104.63" rx="49.2" ry="18"/>
<text text-anchor="start" x="263.84" y="-103.73" font-family="Arial" font-weight="bold" font-size="8.00">composer_loaded</text>
</g>
<!-- transition_4 -->
<g id="node13" class="node">
<title>transition_4</title>
<polygon fill="none" stroke="#333333" points="461.69,-176.63 384.69,-176.63 384.69,-140.63 461.69,-140.63 461.69,-176.63"/>
<text text-anchor="start" x="397.19" y="-165.23" font-family="Arial" font-weight="bold" font-size="8.00">php_too_old</text>
<text text-anchor="start" x="392.69" y="-157.23" font-family="Arial" text-decoration="underline" font-size="8.00">!ValidPhpVersion</text>
<text text-anchor="start" x="402.19" y="-149.23" font-family="Arial" font-style="italic" font-size="8.00">PHP &lt; 8.1?</text>
</g>
<!-- place_composer_loaded&#45;&gt;transition_4 -->
<!-- composer_loaded -->
<g id="edge9" class="edge">
<title>place_composer_loaded&#45;&gt;transition_4</title>
<path fill="none" stroke="#333333" d="M331.4,-118.39C346.1,-124.91 363.87,-132.79 379.79,-139.84"/>
<polygon fill="#333333" stroke="#333333" points="379.38,-141.57 384.66,-142 380.8,-138.37 379.38,-141.57"/>
</g>
<!-- transition_5 -->
<g id="node14" class="node">
<title>transition_5</title>
<polygon fill="none" stroke="#333333" points="460.19,-122.63 386.19,-122.63 386.19,-86.63 460.19,-86.63 460.19,-122.63"/>
<text text-anchor="start" x="403.19" y="-111.23" font-family="Arial" font-weight="bold" font-size="8.00">php_okay</text>
<text text-anchor="start" x="394.19" y="-103.23" font-family="Arial" text-decoration="underline" font-size="8.00">ValidPhpVersion</text>
<text text-anchor="start" x="400.19" y="-95.23" font-family="Arial" font-style="italic" font-size="8.00">PHP &gt;= 8.1?</text>
</g>
<!-- place_composer_loaded&#45;&gt;transition_5 -->
<!-- composer_loaded -->
<g id="edge11" class="edge">
<title>place_composer_loaded&#45;&gt;transition_5</title>
<path fill="none" stroke="#333333" d="M348.85,-104.63C359.36,-104.63 370.39,-104.63 380.6,-104.63"/>
<polygon fill="#333333" stroke="#333333" points="380.86,-106.38 385.86,-104.63 380.86,-102.88 380.86,-106.38"/>
</g>
<!-- place_php_is_too_old -->
<g id="node7" class="node">
<title>place_php_is_too_old</title>
<ellipse fill="lightgreen" stroke="#333333" cx="542.5" cy="-158.63" rx="44.62" ry="18"/>
<text text-anchor="start" x="511" y="-157.73" font-family="Arial" font-weight="bold" font-size="8.00">php_is_too_old</text>
</g>
<!-- place_php_ok -->
<g id="node8" class="node">
<title>place_php_ok</title>
<ellipse fill="lightgreen" stroke="#333333" cx="542.5" cy="-104.63" rx="36" ry="18"/>
<text text-anchor="start" x="527" y="-103.73" font-family="Arial" font-weight="bold" font-size="8.00">php_ok</text>
</g>
<!-- transition_6 -->
<g id="node15" class="node">
<title>transition_6</title>
<polygon fill="none" stroke="#333333" points="716.31,-178.63 623.31,-178.63 623.31,-142.63 716.31,-142.63 716.31,-178.63"/>
<text text-anchor="start" x="632.31" y="-167.23" font-family="Arial" font-weight="bold" font-size="8.00">symfony_outdated</text>
<text text-anchor="start" x="631.31" y="-159.23" font-family="Arial" text-decoration="underline" font-size="8.00">!ValidSymfonyVersion</text>
<text text-anchor="start" x="641.81" y="-151.23" font-family="Arial" font-style="italic" font-size="8.00">Symfony &lt; 5.4?</text>
</g>
<!-- place_php_ok&#45;&gt;transition_6 -->
<!-- php_ok -->
<g id="edge13" class="edge">
<title>place_php_ok&#45;&gt;transition_6</title>
<path fill="none" stroke="#333333" d="M570.07,-116.5C585.57,-123.43 605.54,-132.35 623.45,-140.36"/>
<polygon fill="#333333" stroke="#333333" points="623.17,-142.15 628.45,-142.59 624.6,-138.95 623.17,-142.15"/>
</g>
<!-- transition_7 -->
<g id="node16" class="node">
<title>transition_7</title>
<polygon fill="none" stroke="#333333" points="715.31,-122.63 624.31,-122.63 624.31,-86.63 715.31,-86.63 715.31,-122.63"/>
<text text-anchor="start" x="640.81" y="-111.23" font-family="Arial" font-weight="bold" font-size="8.00">symfony_okay</text>
<text text-anchor="start" x="632.31" y="-103.23" font-family="Arial" text-decoration="underline" font-size="8.00">ValidSymfonyVersion</text>
<text text-anchor="start" x="643.81" y="-95.23" font-family="Arial" font-style="italic" font-size="8.00">Symfony &gt; 5.4</text>
</g>
<!-- place_php_ok&#45;&gt;transition_7 -->
<!-- php_ok -->
<g id="edge15" class="edge">
<title>place_php_ok&#45;&gt;transition_7</title>
<path fill="none" stroke="#333333" d="M578.74,-104.63C591.14,-104.63 605.32,-104.63 618.7,-104.63"/>
<polygon fill="#333333" stroke="#333333" points="618.99,-106.38 623.99,-104.63 618.99,-102.88 618.99,-106.38"/>
</g>
<!-- transition_0&#45;&gt;place_composer_loaded -->
<g id="edge2" class="edge">
<title>transition_0&#45;&gt;place_composer_loaded</title>
<path fill="none" stroke="#333333" d="M214.15,-103.22C223.73,-103.38 234.32,-103.55 244.66,-103.73"/>
<polygon fill="#333333" stroke="#333333" points="244.69,-105.48 249.72,-103.81 244.75,-101.98 244.69,-105.48"/>
</g>
<!-- transition_1&#45;&gt;place_composer_loaded -->
<g id="edge4" class="edge">
<title>transition_1&#45;&gt;place_composer_loaded</title>
<path fill="none" stroke="#333333" d="M1153.31,-70.76C1109.39,-63.95 1031.81,-53.63 964.92,-53.63 541.5,-53.63 541.5,-53.63 541.5,-53.63 470.99,-53.63 453.32,-61.5 384.69,-77.63 370.02,-81.07 354.23,-85.84 340.32,-90.4"/>
<polygon fill="#333333" stroke="#333333" points="339.48,-88.84 335.28,-92.07 340.58,-92.16 339.48,-88.84"/>
</g>
<!-- transition_2&#45;&gt;place_abandoned -->
<g id="edge6" class="edge">
<title>transition_2&#45;&gt;place_abandoned</title>
<path fill="none" stroke="#333333" d="M214.15,-47.04C224.41,-46.87 235.83,-46.67 246.88,-46.49"/>
<polygon fill="#333333" stroke="#333333" points="246.95,-48.24 251.92,-46.41 246.89,-44.74 246.95,-48.24"/>
</g>
<!-- transition_3&#45;&gt;place_valid -->
<g id="edge8" class="edge">
<title>transition_3&#45;&gt;place_valid</title>
<path fill="none" stroke="#333333" d="M1009.57,-102.24C1019.63,-102.15 1030.24,-102.06 1040.11,-101.98"/>
<polygon fill="#333333" stroke="#333333" points="1040.2,-103.73 1045.19,-101.93 1040.17,-100.23 1040.2,-103.73"/>
</g>
<!-- transition_4&#45;&gt;place_php_is_too_old -->
<g id="edge10" class="edge">
<title>transition_4&#45;&gt;place_php_is_too_old</title>
<path fill="none" stroke="#333333" d="M461.95,-158.63C471.65,-158.63 482.22,-158.63 492.4,-158.63"/>
<polygon fill="#333333" stroke="#333333" points="492.68,-160.38 497.68,-158.63 492.68,-156.88 492.68,-160.38"/>
</g>
<!-- transition_5&#45;&gt;place_php_ok -->
<g id="edge12" class="edge">
<title>transition_5&#45;&gt;place_php_ok</title>
<path fill="none" stroke="#333333" d="M460.34,-104.63C473.3,-104.63 487.98,-104.63 501.26,-104.63"/>
<polygon fill="#333333" stroke="#333333" points="501.47,-106.38 506.47,-104.63 501.47,-102.88 501.47,-106.38"/>
</g>
<!-- transition_6&#45;&gt;place_outdated_symfony -->
<g id="edge14" class="edge">
<title>transition_6&#45;&gt;place_outdated_symfony</title>
<path fill="none" stroke="#333333" d="M716.46,-161.57C727.55,-161.8 739.62,-162.05 751.41,-162.29"/>
<polygon fill="#333333" stroke="#333333" points="751.41,-164.04 756.45,-162.39 751.48,-160.54 751.41,-164.04"/>
</g>
<!-- transition_7&#45;&gt;place_symfony_ok -->
<g id="edge16" class="edge">
<title>transition_7&#45;&gt;place_symfony_ok</title>
<path fill="none" stroke="#333333" d="M715.67,-104.63C725.57,-104.63 736.29,-104.63 746.92,-104.63"/>
<polygon fill="#333333" stroke="#333333" points="747.12,-106.38 752.12,-104.63 747.12,-102.88 747.12,-106.38"/>
</g>
</g>
</svg>
