<?xml version="1.0" encoding="UTF-8" standalone="no"?>
<!DOCTYPE svg PUBLIC "-//W3C//DTD SVG 1.1//EN"
 "http://www.w3.org/Graphics/SVG/1.1/DTD/svg11.dtd">
<!-- Generated by graphviz version 2.43.0 (0)
 -->
<!-- Title: workflow Pages: 1 -->
<svg width="1233pt" height="218pt"
 viewBox="0.00 0.00 1233.42 217.63" xmlns="http://www.w3.org/2000/svg" xmlns:xlink="http://www.w3.org/1999/xlink">
<g id="graph0" class="graph" transform="scale(1 1) rotate(0) translate(4 213.63)">
<title>workflow</title>
<polygon fill="white" stroke="transparent" points="-4,4 -4,-213.63 1229.42,-213.63 1229.42,4 -4,4"/>
<text text-anchor="start" x="547.71" y="-8.8" font-family="Times,serif" font-weight="bold" font-size="14.00">BundleWorkflow</text>
<!-- place_new -->
<g id="node1" class="node">
<title>place_new</title>
<ellipse fill="lightgreen" stroke="#333333" cx="52.99" cy="-74.63" rx="52.99" ry="18"/>
<text text-anchor="start" x="44.99" y="-77.23" font-family="Arial" font-weight="bold" font-size="8.00">new</text>
<text text-anchor="start" x="21.49" y="-69.23" font-family="Arial" font-style="italic" font-size="8.00">entity in database</text>
</g>
<!-- transition_0 -->
<g id="node9" class="node">
<title>transition_0</title>
<polygon fill="none" stroke="#333333" points="213.99,-120.63 141.99,-120.63 141.99,-84.63 213.99,-84.63 213.99,-120.63"/>
<text text-anchor="start" x="168.99" y="-101.73" font-family="Arial" font-weight="bold" font-size="8.00">load</text>
</g>
<!-- place_new&#45;&gt;transition_0 -->
<!-- new -->
<g id="edge1" class="edge">
<title>place_new&#45;&gt;transition_0</title>
<path fill="none" stroke="#333333" d="M97.36,-84.5C110.18,-87.42 124.16,-90.6 136.77,-93.47"/>
<polygon fill="#333333" stroke="#333333" points="136.45,-95.19 141.72,-94.6 137.23,-91.78 136.45,-95.19"/>
</g>
<!-- transition_3 -->
<g id="node12" class="node">
<title>transition_3</title>
<polygon fill="none" stroke="#333333" points="213.99,-65.63 141.99,-65.63 141.99,-29.63 213.99,-29.63 213.99,-65.63"/>
<text text-anchor="start" x="159.99" y="-50.23" font-family="Arial" font-weight="bold" font-size="8.00">abandon</text>
<text text-anchor="start" x="157.49" y="-42.23" font-family="Arial" text-decoration="underline" font-size="8.00">abandoned</text>
</g>
<!-- place_new&#45;&gt;transition_3 -->
<!-- new -->
<g id="edge7" class="edge">
<title>place_new&#45;&gt;transition_3</title>
<path fill="none" stroke="#333333" d="M98.05,-64.96C110.6,-62.2 124.2,-59.22 136.52,-56.51"/>
<polygon fill="#333333" stroke="#333333" points="137.2,-58.15 141.71,-55.37 136.45,-54.73 137.2,-58.15"/>
</g>
<!-- place_outdated_symfony -->
<g id="node2" class="node">
<title>place_outdated_symfony</title>
<ellipse fill="lightgreen" stroke="#333333" cx="817.36" cy="-191.63" rx="61.09" ry="18"/>
<text text-anchor="start" x="779.86" y="-194.23" font-family="Arial" font-weight="bold" font-size="8.00">outdated_symfony</text>
<text text-anchor="start" x="785.36" y="-186.23" font-family="Arial" font-style="italic" font-size="8.00">outdated symfony</text>
</g>
<!-- place_symfony_ok -->
<g id="node3" class="node">
<title>place_symfony_ok</title>
<ellipse fill="lightgreen" stroke="#333333" cx="817.36" cy="-132.63" rx="65.11" ry="22.76"/>
<text text-anchor="start" x="792.86" y="-139.23" font-family="Arial" font-weight="bold" font-size="8.00">symfony_ok</text>
<text text-anchor="start" x="779.36" y="-131.23" font-family="Arial" font-style="italic" font-size="8.00">works with supported</text>
<text text-anchor="start" x="801.86" y="-123.23" font-family="Arial" font-style="italic" font-size="8.00">Symfony</text>
</g>
<!-- transition_1 -->
<g id="node10" class="node">
<title>transition_1</title>
<polygon fill="none" stroke="#333333" points="999.92,-103.63 927.92,-103.63 927.92,-67.63 999.92,-67.63 999.92,-103.63"/>
<text text-anchor="start" x="954.92" y="-84.73" font-family="Arial" font-weight="bold" font-size="8.00">load</text>
</g>
<!-- place_symfony_ok&#45;&gt;transition_1 -->
<!-- symfony_ok -->
<g id="edge3" class="edge">
<title>place_symfony_ok&#45;&gt;transition_1</title>
<path fill="none" stroke="#333333" d="M865.7,-117.24C884.21,-111.22 905.21,-104.39 922.95,-98.62"/>
<polygon fill="#333333" stroke="#333333" points="923.65,-100.24 927.86,-97.03 922.57,-96.91 923.65,-100.24"/>
</g>
<!-- transition_4 -->
<g id="node13" class="node">
<title>transition_4</title>
<polygon fill="none" stroke="#333333" points="1009.42,-157.63 918.42,-157.63 918.42,-121.63 1009.42,-121.63 1009.42,-157.63"/>
<text text-anchor="start" x="954.42" y="-142.23" font-family="Arial" font-weight="bold" font-size="8.00">valid</text>
<text text-anchor="start" x="926.42" y="-134.23" font-family="Arial" text-decoration="underline" font-size="8.00">ValidSymfonyVersion</text>
</g>
<!-- place_symfony_ok&#45;&gt;transition_4 -->
<!-- symfony_ok -->
<g id="edge9" class="edge">
<title>place_symfony_ok&#45;&gt;transition_4</title>
<path fill="none" stroke="#333333" d="M882.19,-135.72C892.49,-136.22 903.03,-136.73 912.95,-137.21"/>
<polygon fill="#333333" stroke="#333333" points="912.99,-138.96 918.07,-137.46 913.16,-135.47 912.99,-138.96"/>
</g>
<!-- place_abandoned -->
<g id="node4" class="node">
<title>place_abandoned</title>
<ellipse fill="lightgreen" stroke="#333333" cx="299.34" cy="-45.63" rx="47.25" ry="22.76"/>
<text text-anchor="start" x="276.34" y="-52.23" font-family="Arial" font-weight="bold" font-size="8.00">abandoned</text>
<text text-anchor="start" x="273.84" y="-44.23" font-family="Arial" font-style="italic" font-size="8.00">abandoned or</text>
<text text-anchor="start" x="274.34" y="-36.23" font-family="Arial" font-style="italic" font-size="8.00">misconfigured</text>
</g>
<!-- place_valid -->
<g id="node5" class="node">
<title>place_valid</title>
<ellipse fill="lightgreen" stroke="#333333" cx="1081.42" cy="-112.63" rx="36" ry="18"/>
<text text-anchor="start" x="1071.92" y="-115.23" font-family="Arial" font-weight="bold" font-size="8.00">valid</text>
<text text-anchor="start" x="1068.42" y="-107.23" font-family="Arial" font-style="italic" font-size="8.00">usable!</text>
</g>
<!-- transition_2 -->
<g id="node11" class="node">
<title>transition_2</title>
<polygon fill="none" stroke="#333333" points="1225.42,-80.63 1153.42,-80.63 1153.42,-44.63 1225.42,-44.63 1225.42,-80.63"/>
<text text-anchor="start" x="1180.42" y="-61.73" font-family="Arial" font-weight="bold" font-size="8.00">load</text>
</g>
<!-- place_valid&#45;&gt;transition_2 -->
<!-- valid -->
<g id="edge5" class="edge">
<title>place_valid&#45;&gt;transition_2</title>
<path fill="none" stroke="#333333" d="M1108.08,-100.52C1120.3,-94.76 1135.19,-87.74 1148.82,-81.31"/>
<polygon fill="#333333" stroke="#333333" points="1149.61,-82.87 1153.38,-79.15 1148.11,-79.7 1149.61,-82.87"/>
</g>
<!-- place_composer_loaded -->
<g id="node6" class="node">
<title>place_composer_loaded</title>
<ellipse fill="lightgreen" stroke="#333333" cx="299.34" cy="-104.63" rx="49.2" ry="18"/>
<text text-anchor="start" x="263.84" y="-103.73" font-family="Arial" font-weight="bold" font-size="8.00">composer_loaded</text>
</g>
<!-- transition_5 -->
<g id="node14" class="node">
<title>transition_5</title>
<polygon fill="none" stroke="#333333" points="461.69,-199.63 384.69,-199.63 384.69,-163.63 461.69,-163.63 461.69,-199.63"/>
<text text-anchor="start" x="397.19" y="-188.23" font-family="Arial" font-weight="bold" font-size="8.00">php_too_old</text>
<text text-anchor="start" x="392.69" y="-180.23" font-family="Arial" text-decoration="underline" font-size="8.00">!ValidPhpVersion</text>
<text text-anchor="start" x="402.19" y="-172.23" font-family="Arial" font-style="italic" font-size="8.00">PHP &lt; 8.1?</text>
</g>
<!-- place_composer_loaded&#45;&gt;transition_5 -->
<!-- composer_loaded -->
<g id="edge11" class="edge">
<title>place_composer_loaded&#45;&gt;transition_5</title>
<path fill="none" stroke="#333333" d="M325,-120.21C343.43,-131.86 368.84,-147.92 389.05,-160.69"/>
<polygon fill="#333333" stroke="#333333" points="388.12,-162.17 393.28,-163.36 389.99,-159.21 388.12,-162.17"/>
</g>
<!-- transition_6 -->
<g id="node15" class="node">
<title>transition_6</title>
<polygon fill="none" stroke="#333333" points="460.19,-145.63 386.19,-145.63 386.19,-109.63 460.19,-109.63 460.19,-145.63"/>
<text text-anchor="start" x="403.19" y="-134.23" font-family="Arial" font-weight="bold" font-size="8.00">php_okay</text>
<text text-anchor="start" x="394.19" y="-126.23" font-family="Arial" text-decoration="underline" font-size="8.00">ValidPhpVersion</text>
<text text-anchor="start" x="400.19" y="-118.23" font-family="Arial" font-style="italic" font-size="8.00">PHP &gt;= 8.1?</text>
</g>
<!-- place_composer_loaded&#45;&gt;transition_6 -->
<!-- composer_loaded -->
<g id="edge13" class="edge">
<title>place_composer_loaded&#45;&gt;transition_6</title>
<path fill="none" stroke="#333333" d="M343.64,-112.8C355.73,-115.08 368.83,-117.56 380.81,-119.82"/>
<polygon fill="#333333" stroke="#333333" points="380.63,-121.56 385.87,-120.77 381.28,-118.12 380.63,-121.56"/>
</g>
<!-- place_php_is_too_old -->
<g id="node7" class="node">
<title>place_php_is_too_old</title>
<ellipse fill="lightgreen" stroke="#333333" cx="542.5" cy="-182.63" rx="44.62" ry="18"/>
<text text-anchor="start" x="511" y="-181.73" font-family="Arial" font-weight="bold" font-size="8.00">php_is_too_old</text>
</g>
<!-- place_php_ok -->
<g id="node8" class="node">
<title>place_php_ok</title>
<ellipse fill="lightgreen" stroke="#333333" cx="542.5" cy="-128.63" rx="36" ry="18"/>
<text text-anchor="start" x="527" y="-127.73" font-family="Arial" font-weight="bold" font-size="8.00">php_ok</text>
</g>
<!-- transition_7 -->
<g id="node16" class="node">
<title>transition_7</title>
<polygon fill="none" stroke="#333333" points="716.31,-205.63 623.31,-205.63 623.31,-169.63 716.31,-169.63 716.31,-205.63"/>
<text text-anchor="start" x="632.31" y="-194.23" font-family="Arial" font-weight="bold" font-size="8.00">symfony_outdated</text>
<text text-anchor="start" x="631.31" y="-186.23" font-family="Arial" text-decoration="underline" font-size="8.00">!ValidSymfonyVersion</text>
<text text-anchor="start" x="641.81" y="-178.23" font-family="Arial" font-style="italic" font-size="8.00">Symfony &lt; 5.4?</text>
</g>
<!-- place_php_ok&#45;&gt;transition_7 -->
<!-- php_ok -->
<g id="edge15" class="edge">
<title>place_php_ok&#45;&gt;transition_7</title>
<path fill="none" stroke="#333333" d="M569.46,-140.85C585.72,-148.51 607.07,-158.56 625.8,-167.38"/>
<polygon fill="#333333" stroke="#333333" points="625.24,-169.05 630.51,-169.59 626.73,-165.88 625.24,-169.05"/>
</g>
<!-- transition_8 -->
<g id="node17" class="node">
<title>transition_8</title>
<polygon fill="none" stroke="#333333" points="715.31,-147.63 624.31,-147.63 624.31,-111.63 715.31,-111.63 715.31,-147.63"/>
<text text-anchor="start" x="640.81" y="-136.23" font-family="Arial" font-weight="bold" font-size="8.00">symfony_okay</text>
<text text-anchor="start" x="632.31" y="-128.23" font-family="Arial" text-decoration="underline" font-size="8.00">ValidSymfonyVersion</text>
<text text-anchor="start" x="643.81" y="-120.23" font-family="Arial" font-style="italic" font-size="8.00">Symfony &gt; 5.4</text>
</g>
<!-- place_php_ok&#45;&gt;transition_8 -->
<!-- php_ok -->
<g id="edge17" class="edge">
<title>place_php_ok&#45;&gt;transition_8</title>
<path fill="none" stroke="#333333" d="M578.74,-128.91C591.14,-129.01 605.32,-129.12 618.7,-129.23"/>
<polygon fill="#333333" stroke="#333333" points="618.97,-130.98 623.99,-129.27 619,-127.48 618.97,-130.98"/>
</g>
<!-- transition_0&#45;&gt;place_composer_loaded -->
<g id="edge2" class="edge">
<title>transition_0&#45;&gt;place_composer_loaded</title>
<path fill="none" stroke="#333333" d="M214.15,-103.22C223.73,-103.38 234.32,-103.55 244.66,-103.73"/>
<polygon fill="#333333" stroke="#333333" points="244.69,-105.48 249.72,-103.81 244.75,-101.98 244.69,-105.48"/>
</g>
<!-- transition_1&#45;&gt;place_composer_loaded -->
<g id="edge4" class="edge">
<title>transition_1&#45;&gt;place_composer_loaded</title>
<path fill="none" stroke="#333333" d="M927.85,-84.84C873.01,-83.67 763.62,-81.63 670.81,-81.63 541.5,-81.63 541.5,-81.63 541.5,-81.63 475.15,-81.63 399,-90.36 350.32,-97.06"/>
<polygon fill="#333333" stroke="#333333" points="349.82,-95.37 345.11,-97.79 350.3,-98.83 349.82,-95.37"/>
</g>
<!-- transition_2&#45;&gt;place_composer_loaded -->
<g id="edge6" class="edge">
<title>transition_2&#45;&gt;place_composer_loaded</title>
<path fill="none" stroke="#333333" d="M1153.31,-56.76C1109.39,-49.95 1031.81,-39.63 964.92,-39.63 541.5,-39.63 541.5,-39.63 541.5,-39.63 466.25,-39.63 382.2,-69.5 335.86,-88.74"/>
<polygon fill="#333333" stroke="#333333" points="335.16,-87.14 331.22,-90.68 336.51,-90.37 335.16,-87.14"/>
</g>
<!-- transition_3&#45;&gt;place_abandoned -->
<g id="edge8" class="edge">
<title>transition_3&#45;&gt;place_abandoned</title>
<path fill="none" stroke="#333333" d="M214.15,-47.04C224.41,-46.87 235.83,-46.67 246.88,-46.49"/>
<polygon fill="#333333" stroke="#333333" points="246.95,-48.24 251.92,-46.41 246.89,-44.74 246.95,-48.24"/>
</g>
<!-- transition_4&#45;&gt;place_valid -->
<g id="edge10" class="edge">
<title>transition_4&#45;&gt;place_valid</title>
<path fill="none" stroke="#333333" d="M1009.57,-129.19C1020.8,-126.56 1032.73,-123.78 1043.53,-121.25"/>
<polygon fill="#333333" stroke="#333333" points="1043.94,-122.95 1048.41,-120.11 1043.14,-119.54 1043.94,-122.95"/>
</g>
<!-- transition_5&#45;&gt;place_php_is_too_old -->
<g id="edge12" class="edge">
<title>transition_5&#45;&gt;place_php_is_too_old</title>
<path fill="none" stroke="#333333" d="M461.95,-181.95C471.65,-182.03 482.22,-182.12 492.4,-182.21"/>
<polygon fill="#333333" stroke="#333333" points="492.66,-183.96 497.68,-182.25 492.69,-180.46 492.66,-183.96"/>
</g>
<!-- transition_6&#45;&gt;place_php_ok -->
<g id="edge14" class="edge">
<title>transition_6&#45;&gt;place_php_ok</title>
<path fill="none" stroke="#333333" d="M460.34,-127.94C473.3,-128.05 487.98,-128.17 501.26,-128.28"/>
<polygon fill="#333333" stroke="#333333" points="501.45,-130.04 506.47,-128.33 501.48,-126.54 501.45,-130.04"/>
</g>
<!-- transition_7&#45;&gt;place_outdated_symfony -->
<g id="edge16" class="edge">
<title>transition_7&#45;&gt;place_outdated_symfony</title>
<path fill="none" stroke="#333333" d="M716.46,-188.88C727.55,-189.19 739.62,-189.52 751.41,-189.84"/>
<polygon fill="#333333" stroke="#333333" points="751.4,-191.59 756.45,-189.98 751.5,-188.09 751.4,-191.59"/>
</g>
<!-- transition_8&#45;&gt;place_symfony_ok -->
<g id="edge18" class="edge">
<title>transition_8&#45;&gt;place_symfony_ok</title>
<path fill="none" stroke="#333333" d="M715.67,-130.55C725.65,-130.76 736.45,-130.98 747.15,-131.2"/>
<polygon fill="#333333" stroke="#333333" points="747.35,-132.96 752.39,-131.31 747.43,-129.46 747.35,-132.96"/>
</g>
</g>
</svg>
