<?xml version="1.0" encoding="UTF-8" standalone="no"?>
<!DOCTYPE svg PUBLIC "-//W3C//DTD SVG 1.1//EN"
 "http://www.w3.org/Graphics/SVG/1.1/DTD/svg11.dtd">
<!-- Generated by graphviz version 2.43.0 (0)
 -->
<!-- Title: workflow Pages: 1 -->
<svg width="1065pt" height="148pt"
 viewBox="0.00 0.00 1064.56 148.00" xmlns="http://www.w3.org/2000/svg" xmlns:xlink="http://www.w3.org/1999/xlink">
<g id="graph0" class="graph" transform="scale(1 1) rotate(0) translate(4 144)">
<title>workflow</title>
<polygon fill="white" stroke="transparent" points="-4,4 -4,-144 1060.56,-144 1060.56,4 -4,4"/>
<text text-anchor="start" x="463.28" y="-8.8" font-family="Times,serif" font-weight="bold" font-size="14.00">BundleWorkflow</text>
<!-- place_new -->
<g id="node1" class="node">
<title>place_new</title>
<ellipse fill="lightgreen" stroke="#333333" cx="36" cy="-95" rx="36" ry="18"/>
<text text-anchor="start" x="28" y="-94.1" font-family="Arial" font-weight="bold" font-size="8.00">new</text>
</g>
<!-- transition_0 -->
<g id="node8" class="node">
<title>transition_0</title>
<polygon fill="none" stroke="#333333" points="180,-113 108,-113 108,-77 180,-77 180,-113"/>
<text text-anchor="start" x="135" y="-94.1" font-family="Arial" font-weight="bold" font-size="8.00">load</text>
</g>
<!-- place_new&#45;&gt;transition_0 -->
<!-- new -->
<g id="edge1" class="edge">
<title>place_new&#45;&gt;transition_0</title>
<path fill="none" stroke="#333333" d="M72,-95C81.76,-95 92.44,-95 102.49,-95"/>
<polygon fill="#333333" stroke="#333333" points="102.67,-96.75 107.67,-95 102.67,-93.25 102.67,-96.75"/>
</g>
<!-- place_composer_loaded -->
<g id="node2" class="node">
<title>place_composer_loaded</title>
<ellipse fill="lightgreen" stroke="#333333" cx="265.35" cy="-95" rx="49.2" ry="18"/>
<text text-anchor="start" x="229.85" y="-94.1" font-family="Arial" font-weight="bold" font-size="8.00">composer_loaded</text>
</g>
<!-- transition_2 -->
<g id="node10" class="node">
<title>transition_2</title>
<polygon fill="none" stroke="#333333" points="427.7,-140 350.7,-140 350.7,-104 427.7,-104 427.7,-140"/>
<text text-anchor="start" x="363.2" y="-124.6" font-family="Arial" font-weight="bold" font-size="8.00">php_too_old</text>
<text text-anchor="start" x="358.7" y="-116.6" font-family="Arial" text-decoration="underline" font-size="8.00">!ValidPhpVersion</text>
</g>
<!-- place_composer_loaded&#45;&gt;transition_2 -->
<!-- composer_loaded -->
<g id="edge5" class="edge">
<title>place_composer_loaded&#45;&gt;transition_2</title>
<path fill="none" stroke="#333333" d="M307.94,-104.22C320.01,-106.89 333.2,-109.81 345.34,-112.5"/>
<polygon fill="#333333" stroke="#333333" points="345.21,-114.27 350.47,-113.64 345.97,-110.85 345.21,-114.27"/>
</g>
<!-- transition_3 -->
<g id="node11" class="node">
<title>transition_3</title>
<polygon fill="none" stroke="#333333" points="426.2,-86 352.2,-86 352.2,-50 426.2,-50 426.2,-86"/>
<text text-anchor="start" x="369.2" y="-70.6" font-family="Arial" font-weight="bold" font-size="8.00">php_okay</text>
<text text-anchor="start" x="360.2" y="-62.6" font-family="Arial" text-decoration="underline" font-size="8.00">ValidPhpVersion</text>
</g>
<!-- place_composer_loaded&#45;&gt;transition_3 -->
<!-- composer_loaded -->
<g id="edge7" class="edge">
<title>place_composer_loaded&#45;&gt;transition_3</title>
<path fill="none" stroke="#333333" d="M307.94,-85.78C320.6,-82.98 334.5,-79.9 347.13,-77.1"/>
<polygon fill="#333333" stroke="#333333" points="347.58,-78.79 352.08,-76 346.82,-75.38 347.58,-78.79"/>
</g>
<!-- place_outdated_symfony -->
<g id="node3" class="node">
<title>place_outdated_symfony</title>
<ellipse fill="lightgreen" stroke="#333333" cx="769.94" cy="-95" rx="51.74" ry="18"/>
<text text-anchor="start" x="732.44" y="-94.1" font-family="Arial" font-weight="bold" font-size="8.00">outdated_symfony</text>
</g>
<!-- place_symfony_ok -->
<g id="node4" class="node">
<title>place_symfony_ok</title>
<ellipse fill="lightgreen" stroke="#333333" cx="769.94" cy="-41" rx="36.74" ry="18"/>
<text text-anchor="start" x="745.44" y="-40.1" font-family="Arial" font-weight="bold" font-size="8.00">symfony_ok</text>
</g>
<!-- transition_1 -->
<g id="node9" class="node">
<title>transition_1</title>
<polygon fill="none" stroke="#333333" points="948.56,-59 857.56,-59 857.56,-23 948.56,-23 948.56,-59"/>
<text text-anchor="start" x="893.56" y="-43.6" font-family="Arial" font-weight="bold" font-size="8.00">valid</text>
<text text-anchor="start" x="865.56" y="-35.6" font-family="Arial" text-decoration="underline" font-size="8.00">ValidSymfonyVersion</text>
</g>
<!-- place_symfony_ok&#45;&gt;transition_1 -->
<!-- symfony_ok -->
<g id="edge3" class="edge">
<title>place_symfony_ok&#45;&gt;transition_1</title>
<path fill="none" stroke="#333333" d="M807.11,-41C821.01,-41 837.12,-41 852.08,-41"/>
<polygon fill="#333333" stroke="#333333" points="852.11,-42.75 857.11,-41 852.11,-39.25 852.11,-42.75"/>
</g>
<!-- place_php_is_too_old -->
<g id="node5" class="node">
<title>place_php_is_too_old</title>
<ellipse fill="lightgreen" stroke="#333333" cx="508.51" cy="-122" rx="44.62" ry="18"/>
<text text-anchor="start" x="477.01" y="-121.1" font-family="Arial" font-weight="bold" font-size="8.00">php_is_too_old</text>
</g>
<!-- place_php_ok -->
<g id="node6" class="node">
<title>place_php_ok</title>
<ellipse fill="lightgreen" stroke="#333333" cx="508.51" cy="-68" rx="36" ry="18"/>
<text text-anchor="start" x="493.01" y="-67.1" font-family="Arial" font-weight="bold" font-size="8.00">php_ok</text>
</g>
<!-- transition_4 -->
<g id="node12" class="node">
<title>transition_4</title>
<polygon fill="none" stroke="#333333" points="682.32,-113 589.32,-113 589.32,-77 682.32,-77 682.32,-113"/>
<text text-anchor="start" x="598.32" y="-97.6" font-family="Arial" font-weight="bold" font-size="8.00">symfony_outdated</text>
<text text-anchor="start" x="597.32" y="-89.6" font-family="Arial" text-decoration="underline" font-size="8.00">!ValidSymfonyVersion</text>
</g>
<!-- place_php_ok&#45;&gt;transition_4 -->
<!-- php_ok -->
<g id="edge9" class="edge">
<title>place_php_ok&#45;&gt;transition_4</title>
<path fill="none" stroke="#333333" d="M541.78,-74.95C554.57,-77.71 569.58,-80.94 583.78,-84"/>
<polygon fill="#333333" stroke="#333333" points="583.71,-85.78 588.96,-85.12 584.44,-82.36 583.71,-85.78"/>
</g>
<!-- transition_5 -->
<g id="node13" class="node">
<title>transition_5</title>
<polygon fill="none" stroke="#333333" points="681.32,-59 590.32,-59 590.32,-23 681.32,-23 681.32,-59"/>
<text text-anchor="start" x="606.82" y="-43.6" font-family="Arial" font-weight="bold" font-size="8.00">symfony_okay</text>
<text text-anchor="start" x="598.32" y="-35.6" font-family="Arial" text-decoration="underline" font-size="8.00">ValidSymfonyVersion</text>
</g>
<!-- place_php_ok&#45;&gt;transition_5 -->
<!-- php_ok -->
<g id="edge11" class="edge">
<title>place_php_ok&#45;&gt;transition_5</title>
<path fill="none" stroke="#333333" d="M541.78,-61.05C554.94,-58.21 570.46,-54.87 585.01,-51.73"/>
<polygon fill="#333333" stroke="#333333" points="585.39,-53.44 589.91,-50.68 584.65,-50.02 585.39,-53.44"/>
</g>
<!-- place_valid -->
<g id="node7" class="node">
<title>place_valid</title>
<ellipse fill="lightgreen" stroke="#333333" cx="1020.56" cy="-41" rx="36" ry="18"/>
<text text-anchor="start" x="1011.06" y="-40.1" font-family="Arial" font-weight="bold" font-size="8.00">valid</text>
</g>
<!-- transition_0&#45;&gt;place_composer_loaded -->
<g id="edge2" class="edge">
<title>transition_0&#45;&gt;place_composer_loaded</title>
<path fill="none" stroke="#333333" d="M180.16,-95C189.74,-95 200.33,-95 210.67,-95"/>
<polygon fill="#333333" stroke="#333333" points="210.73,-96.75 215.73,-95 210.73,-93.25 210.73,-96.75"/>
</g>
<!-- transition_1&#45;&gt;place_valid -->
<g id="edge4" class="edge">
<title>transition_1&#45;&gt;place_valid</title>
<path fill="none" stroke="#333333" d="M948.71,-41C958.77,-41 969.38,-41 979.24,-41"/>
<polygon fill="#333333" stroke="#333333" points="979.33,-42.75 984.33,-41 979.33,-39.25 979.33,-42.75"/>
</g>
<!-- transition_2&#45;&gt;place_php_is_too_old -->
<g id="edge6" class="edge">
<title>transition_2&#45;&gt;place_php_is_too_old</title>
<path fill="none" stroke="#333333" d="M427.96,-122C437.66,-122 448.23,-122 458.41,-122"/>
<polygon fill="#333333" stroke="#333333" points="458.69,-123.75 463.69,-122 458.69,-120.25 458.69,-123.75"/>
</g>
<!-- transition_3&#45;&gt;place_php_ok -->
<g id="edge8" class="edge">
<title>transition_3&#45;&gt;place_php_ok</title>
<path fill="none" stroke="#333333" d="M426.35,-68C439.31,-68 453.99,-68 467.27,-68"/>
<polygon fill="#333333" stroke="#333333" points="467.48,-69.75 472.48,-68 467.48,-66.25 467.48,-69.75"/>
</g>
<!-- transition_4&#45;&gt;place_outdated_symfony -->
<g id="edge10" class="edge">
<title>transition_4&#45;&gt;place_outdated_symfony</title>
<path fill="none" stroke="#333333" d="M682.66,-95C692.43,-95 702.86,-95 712.96,-95"/>
<polygon fill="#333333" stroke="#333333" points="713.21,-96.75 718.21,-95 713.21,-93.25 713.21,-96.75"/>
</g>
<!-- transition_5&#45;&gt;place_symfony_ok -->
<g id="edge12" class="edge">
<title>transition_5&#45;&gt;place_symfony_ok</title>
<path fill="none" stroke="#333333" d="M681.55,-41C696.48,-41 713.05,-41 727.7,-41"/>
<polygon fill="#333333" stroke="#333333" points="728.01,-42.75 733.01,-41 728.01,-39.25 728.01,-42.75"/>
</g>
</g>
</svg>
