<?xml version="1.0" encoding="UTF-8" standalone="no"?>
<!DOCTYPE svg PUBLIC "-//W3C//DTD SVG 1.1//EN"
 "http://www.w3.org/Graphics/SVG/1.1/DTD/svg11.dtd">
<!-- Generated by graphviz version 16.1.0 (20260904.0139)
 -->
<!-- Title: workflow Pages: 1 -->
<svg width="758pt" height="1185pt"
 viewBox="0.00 0.00 758.00 1185.00" xmlns="http://www.w3.org/2000/svg" xmlns:xlink="http://www.w3.org/1999/xlink">
<g id="graph0" class="graph" transform="scale(1 1) rotate(0) translate(4 1180.5)">
<title>workflow</title>
<polygon fill="white" stroke="none" points="-4,4 -4,-1180.5 754.19,-1180.5 754.19,4 -4,4"/>
<text xml:space="preserve" text-anchor="start" x="325.22" y="-8.2" font-family="Times,serif" font-weight="bold" font-size="14.00">BundleWorkflow</text>
<!-- place_new -->
<g id="node1" class="node">
<title>place_new</title>
<ellipse fill="lightgreen" stroke="lightBlue" cx="395.19" cy="-1140.5" rx="72" ry="36"/>
<text xml:space="preserve" text-anchor="start" x="373.06" y="-1149.9" font-family="Arial" font-weight="bold" font-size="8.00">Discovered</text>
<text xml:space="preserve" text-anchor="start" x="360.31" y="-1141.9" font-family="Arial" font-style="italic" font-size="8.00">basic from app:load</text>
<text xml:space="preserve" text-anchor="start" x="374.94" y="-1125.9" font-family="Arial" font-size="8.00">Then: </text>
<text xml:space="preserve" text-anchor="start" x="398.19" y="-1125.9" font-family="Arial" text-decoration="underline" font-size="8.00">load</text>
<text xml:space="preserve" text-anchor="start" x="413.19" y="-1125.9" font-family="Arial" font-size="8.00"> </text>
</g>
<!-- transition_load -->
<g id="node10" class="node">
<title>transition_load</title>
<polygon fill="lightBlue" stroke="lightBlue" points="467.19,-1068.5 323.19,-1068.5 323.19,-996.5 467.19,-996.5 467.19,-1068.5"/>
<text xml:space="preserve" text-anchor="start" x="386.56" y="-1037.9" font-family="Arial" font-weight="bold" font-size="8.00">load</text>
<text xml:space="preserve" text-anchor="start" x="349.44" y="-1029.9" font-family="Arial" font-style="italic" font-size="8.00">details from packagist API</text>
<text xml:space="preserve" text-anchor="start" x="382.81" y="-1021.9" font-family="Arial" font-size="8.00">async: </text>
</g>
<!-- place_new&#45;&gt;transition_load -->
<!-- new -->
<g id="edge1" class="edge">
<title>place_new&#45;&gt;transition_load</title>
<path fill="none" stroke="#333333" d="M395.19,-1104.2C395.19,-1094.82 395.19,-1084.59 395.19,-1074.91"/>
<polygon fill="#333333" stroke="#333333" points="396.94,-1075.16 395.19,-1070.16 393.44,-1075.16 396.94,-1075.16"/>
</g>
<!-- place_composer_loaded -->
<g id="node2" class="node">
<title>place_composer_loaded</title>
<ellipse fill="lightgreen" stroke="lightBlue" cx="395.19" cy="-924.5" rx="93.96" ry="36"/>
<text xml:space="preserve" text-anchor="start" x="362.56" y="-933.9" font-family="Arial" font-weight="bold" font-size="8.00">Metadata loaded</text>
<text xml:space="preserve" text-anchor="start" x="369.69" y="-925.9" font-family="Arial" font-style="italic" font-size="8.00">composer.json</text>
<text xml:space="preserve" text-anchor="start" x="325.06" y="-909.9" font-family="Arial" font-size="8.00">Then: </text>
<text xml:space="preserve" text-anchor="start" x="348.31" y="-909.9" font-family="Arial" text-decoration="underline" font-size="8.00">abandon</text>
<text xml:space="preserve" text-anchor="start" x="379.81" y="-909.9" font-family="Arial" font-size="8.00"> </text>
<text xml:space="preserve" text-anchor="start" x="382.06" y="-909.9" font-family="Arial" text-decoration="underline" font-size="8.00">php_okay</text>
<text xml:space="preserve" text-anchor="start" x="416.56" y="-909.9" font-family="Arial" font-size="8.00"> </text>
<text xml:space="preserve" text-anchor="start" x="418.81" y="-909.9" font-family="Arial" text-decoration="underline" font-size="8.00">php_too_old</text>
<text xml:space="preserve" text-anchor="start" x="463.06" y="-909.9" font-family="Arial" font-size="8.00"> </text>
</g>
<!-- transition_abandon -->
<g id="node11" class="node">
<title>transition_abandon</title>
<polygon fill="lightBlue" stroke="lightBlue" points="646.19,-852.5 502.19,-852.5 502.19,-780.5 646.19,-780.5 646.19,-852.5"/>
<text xml:space="preserve" text-anchor="start" x="556.56" y="-821.9" font-family="Arial" font-weight="bold" font-size="8.00">abandon</text>
<text xml:space="preserve" text-anchor="start" x="531.44" y="-813.9" font-family="Arial" font-size="8.00">guardLabel: Abandoned</text>
<text xml:space="preserve" text-anchor="start" x="553.56" y="-805.9" font-family="Arial" text-decoration="underline" font-size="8.00">Abandoned</text>
</g>
<!-- place_composer_loaded&#45;&gt;transition_abandon -->
<!-- composer_loaded -->
<g id="edge15" class="edge">
<title>place_composer_loaded&#45;&gt;transition_abandon</title>
<path fill="none" stroke="#333333" d="M445.52,-893.69C465.17,-882.06 487.96,-868.56 508.85,-856.19"/>
<polygon fill="#333333" stroke="#333333" points="509.68,-857.73 513.1,-853.68 507.9,-854.72 509.68,-857.73"/>
</g>
<!-- transition_php_too_old -->
<g id="node13" class="node">
<title>transition_php_too_old</title>
<polygon fill="lightBlue" stroke="lightBlue" points="288.56,-852.5 103.81,-852.5 103.81,-780.5 288.56,-780.5 288.56,-852.5"/>
<text xml:space="preserve" text-anchor="start" x="170.69" y="-825.9" font-family="Arial" font-weight="bold" font-size="8.00">php_too_old</text>
<text xml:space="preserve" text-anchor="start" x="111.81" y="-817.9" font-family="Arial" font-size="8.00">guardLabel: Not abandoned; unsupported PHP</text>
<text xml:space="preserve" text-anchor="start" x="114.06" y="-809.9" font-family="Arial" text-decoration="underline" font-size="8.00">not Abandoned and ValidPhpVersion === false</text>
<text xml:space="preserve" text-anchor="start" x="148.56" y="-801.9" font-family="Arial" font-style="italic" font-size="8.00">No supported PHP version</text>
</g>
<!-- place_composer_loaded&#45;&gt;transition_php_too_old -->
<!-- composer_loaded -->
<g id="edge21" class="edge">
<title>place_composer_loaded&#45;&gt;transition_php_too_old</title>
<path fill="none" stroke="#333333" d="M341.07,-894.68C318.7,-882.76 292.42,-868.76 268.44,-855.99"/>
<polygon fill="#333333" stroke="#333333" points="269.29,-854.46 264.05,-853.65 267.64,-857.55 269.29,-854.46"/>
</g>
<!-- transition_php_okay -->
<g id="node14" class="node">
<title>transition_php_okay</title>
<polygon fill="lightBlue" stroke="lightBlue" points="484.19,-852.5 306.19,-852.5 306.19,-780.5 484.19,-780.5 484.19,-852.5"/>
<text xml:space="preserve" text-anchor="start" x="375.69" y="-825.9" font-family="Arial" font-weight="bold" font-size="8.00">php_okay</text>
<text xml:space="preserve" text-anchor="start" x="314.19" y="-817.9" font-family="Arial" font-size="8.00">guardLabel: Not abandoned; compatible PHP</text>
<text xml:space="preserve" text-anchor="start" x="330.31" y="-809.9" font-family="Arial" text-decoration="underline" font-size="8.00">not Abandoned and ValidPhpVersion</text>
<text xml:space="preserve" text-anchor="start" x="338.56" y="-801.9" font-family="Arial" font-style="italic" font-size="8.00">Supports a current PHP version</text>
</g>
<!-- place_composer_loaded&#45;&gt;transition_php_okay -->
<!-- composer_loaded -->
<g id="edge23" class="edge">
<title>place_composer_loaded&#45;&gt;transition_php_okay</title>
<path fill="none" stroke="#333333" d="M395.19,-888.2C395.19,-878.82 395.19,-868.59 395.19,-858.91"/>
<polygon fill="#333333" stroke="#333333" points="396.94,-859.16 395.19,-854.16 393.44,-859.16 396.94,-859.16"/>
</g>
<!-- place_outdated_symfony -->
<g id="node3" class="node">
<title>place_outdated_symfony</title>
<ellipse fill="lightgreen" stroke="lightBlue" cx="140.19" cy="-492.5" rx="72" ry="36"/>
<text xml:space="preserve" text-anchor="start" x="95.94" y="-493.9" font-family="Arial" font-weight="bold" font-size="8.00">Symfony unsupported</text>
<text xml:space="preserve" text-anchor="start" x="89.56" y="-485.9" font-family="Arial" font-style="italic" font-size="8.00">Does not support Symfony 8</text>
</g>
<!-- place_outdated_symfony&#45;&gt;transition_load -->
<!-- outdated_symfony -->
<g id="edge5" class="edge">
<title>place_outdated_symfony&#45;&gt;transition_load</title>
<path fill="none" stroke="#333333" d="M113.39,-526.04C83.17,-566.12 38.19,-637.53 38.19,-707.5 38.19,-817.5 38.19,-817.5 38.19,-817.5 38.19,-890.33 60.47,-916.09 118.19,-960.5 175.22,-1004.39 256.49,-1021.34 316.25,-1027.79"/>
<polygon fill="#333333" stroke="#333333" points="316.04,-1029.52 321.19,-1028.29 316.4,-1026.04 316.04,-1029.52"/>
</g>
<!-- place_symfony_ok -->
<g id="node4" class="node">
<title>place_symfony_ok</title>
<ellipse fill="lightgreen" stroke="lightBlue" cx="521.19" cy="-492.5" rx="72" ry="36"/>
<text xml:space="preserve" text-anchor="start" x="477.69" y="-501.9" font-family="Arial" font-weight="bold" font-size="8.00">Symfony 8 compatible</text>
<text xml:space="preserve" text-anchor="start" x="485.19" y="-493.9" font-family="Arial" font-style="italic" font-size="8.00">Supports Symfony 8</text>
<text xml:space="preserve" text-anchor="start" x="500.56" y="-477.9" font-family="Arial" font-size="8.00">Then: </text>
<text xml:space="preserve" text-anchor="start" x="523.81" y="-477.9" font-family="Arial" text-decoration="underline" font-size="8.00">valid</text>
<text xml:space="preserve" text-anchor="start" x="539.56" y="-477.9" font-family="Arial" font-size="8.00"> </text>
</g>
<!-- place_symfony_ok&#45;&gt;transition_load -->
<!-- symfony_ok -->
<g id="edge3" class="edge">
<title>place_symfony_ok&#45;&gt;transition_load</title>
<path fill="none" stroke="#333333" d="M568.89,-519.53C625.46,-554.3 712.19,-621.6 712.19,-707.5 712.19,-817.5 712.19,-817.5 712.19,-817.5 712.19,-932.34 567.5,-989.69 473.62,-1014.81"/>
<polygon fill="#333333" stroke="#333333" points="473.37,-1013.06 468.98,-1016.03 474.26,-1016.45 473.37,-1013.06"/>
</g>
<!-- transition_valid -->
<g id="node12" class="node">
<title>transition_valid</title>
<polygon fill="lightBlue" stroke="lightBlue" points="628.94,-420.5 287.44,-420.5 287.44,-348.5 628.94,-348.5 628.94,-420.5"/>
<text xml:space="preserve" text-anchor="start" x="448.81" y="-389.9" font-family="Arial" font-weight="bold" font-size="8.00">valid</text>
<text xml:space="preserve" text-anchor="start" x="336.69" y="-381.9" font-family="Arial" font-size="8.00">guardLabel: Not abandoned; compatible PHP; Symfony 8 if a bundle</text>
<text xml:space="preserve" text-anchor="start" x="295.44" y="-373.9" font-family="Arial" text-decoration="underline" font-size="8.00">ValidPhpVersion and not Abandoned and (type != &#39;symfony&#45;bundle&#39; or ValidSymfonyVersion)</text>
</g>
<!-- place_symfony_ok&#45;&gt;transition_valid -->
<!-- symfony_ok -->
<g id="edge19" class="edge">
<title>place_symfony_ok&#45;&gt;transition_valid</title>
<path fill="none" stroke="#333333" d="M501.08,-457.67C495.13,-447.66 488.55,-436.6 482.38,-426.2"/>
<polygon fill="#333333" stroke="#333333" points="484.02,-425.54 479.96,-422.14 481.01,-427.33 484.02,-425.54"/>
</g>
<!-- place_php_is_too_old -->
<g id="node5" class="node">
<title>place_php_is_too_old</title>
<ellipse fill="lightgreen" stroke="lightBlue" cx="167.19" cy="-708.5" rx="72" ry="36"/>
<text xml:space="preserve" text-anchor="start" x="131.94" y="-709.9" font-family="Arial" font-weight="bold" font-size="8.00">PHP unsupported</text>
<text xml:space="preserve" text-anchor="start" x="142.06" y="-701.9" font-family="Arial" font-style="italic" font-size="8.00">outdated PHP</text>
</g>
<!-- place_php_is_too_old&#45;&gt;transition_load -->
<!-- php_is_too_old -->
<g id="edge7" class="edge">
<title>place_php_is_too_old&#45;&gt;transition_load</title>
<path fill="none" stroke="#333333" d="M126.73,-738.77C114.18,-750.22 101.89,-764.47 95.19,-780.5 82.84,-810.02 79.39,-824.67 95.19,-852.5 142.3,-935.48 244.81,-984.07 316.83,-1009.2"/>
<polygon fill="#333333" stroke="#333333" points="316.11,-1010.8 321.4,-1010.77 317.24,-1007.49 316.11,-1010.8"/>
</g>
<!-- place_php_ok -->
<g id="node6" class="node">
<title>place_php_ok</title>
<ellipse fill="lightgreen" stroke="lightBlue" cx="395.19" cy="-708.5" rx="106.59" ry="36"/>
<text xml:space="preserve" text-anchor="start" x="364.06" y="-717.9" font-family="Arial" font-weight="bold" font-size="8.00">PHP compatible</text>
<text xml:space="preserve" text-anchor="start" x="379.06" y="-709.9" font-family="Arial" font-style="italic" font-size="8.00">php okay</text>
<text xml:space="preserve" text-anchor="start" x="314.56" y="-693.9" font-family="Arial" font-size="8.00">Then: </text>
<text xml:space="preserve" text-anchor="start" x="337.81" y="-693.9" font-family="Arial" text-decoration="underline" font-size="8.00">symfony_okay</text>
<text xml:space="preserve" text-anchor="start" x="388.06" y="-693.9" font-family="Arial" font-size="8.00"> </text>
<text xml:space="preserve" text-anchor="start" x="390.31" y="-693.9" font-family="Arial" text-decoration="underline" font-size="8.00">symfony_outdated</text>
<text xml:space="preserve" text-anchor="start" x="455.56" y="-693.9" font-family="Arial" font-size="8.00"> </text>
<text xml:space="preserve" text-anchor="start" x="457.81" y="-693.9" font-family="Arial" text-decoration="underline" font-size="8.00">valid</text>
<text xml:space="preserve" text-anchor="start" x="473.56" y="-693.9" font-family="Arial" font-size="8.00"> </text>
</g>
<!-- place_php_ok&#45;&gt;transition_valid -->
<!-- php_ok -->
<g id="edge17" class="edge">
<title>place_php_ok&#45;&gt;transition_valid</title>
<path fill="none" stroke="#333333" d="M398.85,-672.08C402.11,-643.04 407.4,-600.94 414.19,-564.5 423.23,-515.96 428.34,-504.43 440.19,-456.5 442.54,-446.98 445.11,-436.75 447.55,-427.11"/>
<polygon fill="#333333" stroke="#333333" points="449.22,-427.61 448.76,-422.34 445.83,-426.75 449.22,-427.61"/>
</g>
<!-- transition_symfony_outdated -->
<g id="node15" class="node">
<title>transition_symfony_outdated</title>
<polygon fill="lightBlue" stroke="lightBlue" points="331.44,-636.5 100.94,-636.5 100.94,-564.5 331.44,-564.5 331.44,-636.5"/>
<text xml:space="preserve" text-anchor="start" x="179.06" y="-609.9" font-family="Arial" font-weight="bold" font-size="8.00">symfony_outdated</text>
<text xml:space="preserve" text-anchor="start" x="132.94" y="-601.9" font-family="Arial" font-size="8.00">guardLabel: Bundle without Symfony 8 support</text>
<text xml:space="preserve" text-anchor="start" x="108.94" y="-593.9" font-family="Arial" text-decoration="underline" font-size="8.00">type == &#39;symfony&#45;bundle&#39; and ValidSymfonyVersion === false</text>
<text xml:space="preserve" text-anchor="start" x="152.81" y="-585.9" font-family="Arial" font-style="italic" font-size="8.00">Bundle does not support Symfony 8</text>
</g>
<!-- place_php_ok&#45;&gt;transition_symfony_outdated -->
<!-- php_ok -->
<g id="edge25" class="edge">
<title>place_php_ok&#45;&gt;transition_symfony_outdated</title>
<path fill="none" stroke="#333333" d="M343.41,-676.84C324.08,-665.39 301.86,-652.24 281.47,-640.16"/>
<polygon fill="#333333" stroke="#333333" points="282.54,-638.76 277.35,-637.72 280.76,-641.77 282.54,-638.76"/>
</g>
<!-- transition_symfony_okay -->
<g id="node16" class="node">
<title>transition_symfony_okay</title>
<polygon fill="lightBlue" stroke="lightBlue" points="619.19,-636.5 423.19,-636.5 423.19,-564.5 619.19,-564.5 619.19,-636.5"/>
<text xml:space="preserve" text-anchor="start" x="492.69" y="-609.9" font-family="Arial" font-weight="bold" font-size="8.00">symfony_okay</text>
<text xml:space="preserve" text-anchor="start" x="446.56" y="-601.9" font-family="Arial" font-size="8.00">guardLabel: Symfony 8 compatible bundle</text>
<text xml:space="preserve" text-anchor="start" x="431.19" y="-593.9" font-family="Arial" text-decoration="underline" font-size="8.00">type == &#39;symfony&#45;bundle&#39; and ValidSymfonyVersion</text>
<text xml:space="preserve" text-anchor="start" x="472.44" y="-585.9" font-family="Arial" font-style="italic" font-size="8.00">Bundle supports Symfony 8</text>
</g>
<!-- place_php_ok&#45;&gt;transition_symfony_okay -->
<!-- php_ok -->
<g id="edge27" class="edge">
<title>place_php_ok&#45;&gt;transition_symfony_okay</title>
<path fill="none" stroke="#333333" d="M434.36,-674.54C447.1,-663.82 461.37,-651.83 474.59,-640.7"/>
<polygon fill="#333333" stroke="#333333" points="475.56,-642.17 478.25,-637.62 473.3,-639.5 475.56,-642.17"/>
</g>
<!-- place_abandoned -->
<g id="node7" class="node">
<title>place_abandoned</title>
<ellipse fill="lightgreen" stroke="lightBlue" cx="602.19" cy="-708.5" rx="72" ry="36"/>
<text xml:space="preserve" text-anchor="start" x="579.69" y="-709.9" font-family="Arial" font-weight="bold" font-size="8.00">abandoned</text>
<text xml:space="preserve" text-anchor="start" x="551.19" y="-701.9" font-family="Arial" font-style="italic" font-size="8.00">abandoned or misconfigured</text>
</g>
<!-- place_abandoned&#45;&gt;transition_load -->
<!-- abandoned -->
<g id="edge9" class="edge">
<title>place_abandoned&#45;&gt;transition_load</title>
<path fill="none" stroke="#333333" d="M632.68,-741.26C641.74,-752.72 650.48,-766.34 655.19,-780.5 665.27,-810.87 670.07,-824.17 655.19,-852.5 617.15,-924.87 535.14,-973.68 473.34,-1001.81"/>
<polygon fill="#333333" stroke="#333333" points="472.64,-1000.21 468.8,-1003.85 474.08,-1003.4 472.64,-1000.21"/>
</g>
<!-- place_valid -->
<g id="node8" class="node">
<title>place_valid</title>
<ellipse fill="lightgreen" stroke="lightBlue" cx="458.19" cy="-276.5" rx="72" ry="36"/>
<text xml:space="preserve" text-anchor="start" x="448.81" y="-285.9" font-family="Arial" font-weight="bold" font-size="8.00">valid</text>
<text xml:space="preserve" text-anchor="start" x="445.44" y="-277.9" font-family="Arial" font-style="italic" font-size="8.00">usable!</text>
<text xml:space="preserve" text-anchor="start" x="426.31" y="-261.9" font-family="Arial" font-size="8.00">Then: </text>
<text xml:space="preserve" text-anchor="start" x="449.56" y="-261.9" font-family="Arial" text-decoration="underline" font-size="8.00">fetch_docs</text>
<text xml:space="preserve" text-anchor="start" x="487.81" y="-261.9" font-family="Arial" font-size="8.00"> </text>
</g>
<!-- place_valid&#45;&gt;transition_load -->
<!-- valid -->
<g id="edge11" class="edge">
<title>place_valid&#45;&gt;transition_load</title>
<path fill="none" stroke="#333333" d="M386.12,-279.37C257.14,-286.96 0.19,-323.21 0.19,-491.5 0.19,-817.5 0.19,-817.5 0.19,-817.5 0.19,-884.4 -2.79,-916.02 47.19,-960.5 86.26,-995.28 226.42,-1015.15 316.5,-1024.59"/>
<polygon fill="#333333" stroke="#333333" points="316.23,-1026.32 321.39,-1025.1 316.59,-1022.84 316.23,-1026.32"/>
</g>
<!-- transition_fetch_docs -->
<g id="node17" class="node">
<title>transition_fetch_docs</title>
<polygon fill="lightBlue" stroke="lightBlue" points="595.19,-204.5 451.19,-204.5 451.19,-132.5 595.19,-132.5 595.19,-204.5"/>
<text xml:space="preserve" text-anchor="start" x="501.06" y="-173.9" font-family="Arial" font-weight="bold" font-size="8.00">fetch_docs</text>
<text xml:space="preserve" text-anchor="start" x="475.19" y="-165.9" font-family="Arial" font-style="italic" font-size="8.00">raw.githubusercontent.com</text>
<text xml:space="preserve" text-anchor="start" x="510.81" y="-157.9" font-family="Arial" font-size="8.00">async: </text>
</g>
<!-- place_valid&#45;&gt;transition_fetch_docs -->
<!-- valid -->
<g id="edge29" class="edge">
<title>place_valid&#45;&gt;transition_fetch_docs</title>
<path fill="none" stroke="#333333" d="M478.93,-241.67C485.07,-231.66 491.85,-220.6 498.23,-210.2"/>
<polygon fill="#333333" stroke="#333333" points="499.61,-211.3 500.73,-206.12 496.62,-209.47 499.61,-211.3"/>
</g>
<!-- place_documented -->
<g id="node9" class="node">
<title>place_documented</title>
<ellipse fill="lightgreen" stroke="lightBlue" cx="573.19" cy="-60.5" rx="121.45" ry="36"/>
<text xml:space="preserve" text-anchor="start" x="546.94" y="-61.9" font-family="Arial" font-weight="bold" font-size="8.00">Docs fetched</text>
<text xml:space="preserve" text-anchor="start" x="466.69" y="-53.9" font-family="Arial" font-style="italic" font-size="8.00">README / AGENTS.md fetch attempted; either may be null</text>
</g>
<!-- place_documented&#45;&gt;transition_load -->
<!-- documented -->
<g id="edge13" class="edge">
<title>place_documented&#45;&gt;transition_load</title>
<path fill="none" stroke="#333333" d="M624.38,-93.24C676.66,-130.04 750.19,-195.95 750.19,-275.5 750.19,-817.5 750.19,-817.5 750.19,-817.5 750.19,-890.76 726.41,-916.03 668.19,-960.5 612.05,-1003.38 532.5,-1020.48 473.75,-1027.24"/>
<polygon fill="#333333" stroke="#333333" points="473.69,-1025.48 468.91,-1027.77 474.07,-1028.96 473.69,-1025.48"/>
</g>
<!-- transition_load&#45;&gt;place_composer_loaded -->
<g id="edge2" class="edge">
<title>transition_load&#45;&gt;place_composer_loaded</title>
<path fill="none" stroke="#333333" d="M356.76,-996.2C354.24,-985.83 354.02,-974.44 356.09,-963.89"/>
<polygon fill="#333333" stroke="#333333" points="357.73,-964.53 357.21,-959.25 354.33,-963.7 357.73,-964.53"/>
</g>
<!-- transition_load&#45;&gt;place_composer_loaded -->
<g id="edge4" class="edge">
<title>transition_load&#45;&gt;place_composer_loaded</title>
<path fill="none" stroke="#333333" d="M369.57,-996.2C368,-986.52 367.77,-975.95 368.87,-966"/>
<polygon fill="#333333" stroke="#333333" points="370.6,-966.26 369.57,-961.06 367.13,-965.77 370.6,-966.26"/>
</g>
<!-- transition_load&#45;&gt;place_composer_loaded -->
<g id="edge6" class="edge">
<title>transition_load&#45;&gt;place_composer_loaded</title>
<path fill="none" stroke="#333333" d="M382.38,-996.2C381.62,-986.82 381.48,-976.59 381.98,-966.91"/>
<polygon fill="#333333" stroke="#333333" points="383.71,-967.26 382.29,-962.15 380.22,-967.03 383.71,-967.26"/>
</g>
<!-- transition_load&#45;&gt;place_composer_loaded -->
<g id="edge8" class="edge">
<title>transition_load&#45;&gt;place_composer_loaded</title>
<path fill="none" stroke="#333333" d="M395.19,-996.2C395.19,-986.82 395.19,-976.59 395.19,-966.91"/>
<polygon fill="#333333" stroke="#333333" points="396.94,-967.16 395.19,-962.16 393.44,-967.16 396.94,-967.16"/>
</g>
<!-- transition_load&#45;&gt;place_composer_loaded -->
<g id="edge10" class="edge">
<title>transition_load&#45;&gt;place_composer_loaded</title>
<path fill="none" stroke="#333333" d="M407.99,-996.2C408.75,-986.82 408.89,-976.59 408.39,-966.91"/>
<polygon fill="#333333" stroke="#333333" points="410.16,-967.03 408.08,-962.15 406.66,-967.26 410.16,-967.03"/>
</g>
<!-- transition_load&#45;&gt;place_composer_loaded -->
<g id="edge12" class="edge">
<title>transition_load&#45;&gt;place_composer_loaded</title>
<path fill="none" stroke="#333333" d="M420.8,-996.2C422.37,-986.52 422.61,-975.95 421.51,-966"/>
<polygon fill="#333333" stroke="#333333" points="423.24,-965.77 420.8,-961.06 419.78,-966.26 423.24,-965.77"/>
</g>
<!-- transition_load&#45;&gt;place_composer_loaded -->
<g id="edge14" class="edge">
<title>transition_load&#45;&gt;place_composer_loaded</title>
<path fill="none" stroke="#333333" d="M433.61,-996.2C436.13,-985.83 436.36,-974.44 434.29,-963.89"/>
<polygon fill="#333333" stroke="#333333" points="436.04,-963.7 433.16,-959.25 432.64,-964.53 436.04,-963.7"/>
</g>
<!-- transition_abandon&#45;&gt;place_abandoned -->
<g id="edge16" class="edge">
<title>transition_abandon&#45;&gt;place_abandoned</title>
<path fill="none" stroke="#333333" d="M583.51,-780.2C585.99,-770.82 588.69,-760.59 591.25,-750.91"/>
<polygon fill="#333333" stroke="#333333" points="592.93,-751.39 592.52,-746.11 589.55,-750.49 592.93,-751.39"/>
</g>
<!-- transition_valid&#45;&gt;place_valid -->
<g id="edge18" class="edge">
<title>transition_valid&#45;&gt;place_valid</title>
<path fill="none" stroke="#333333" d="M451.78,-348.2C451.4,-338.82 451.33,-328.59 451.58,-318.91"/>
<polygon fill="#333333" stroke="#333333" points="453.32,-319.21 451.74,-314.16 449.82,-319.09 453.32,-319.21"/>
</g>
<!-- transition_valid&#45;&gt;place_valid -->
<g id="edge20" class="edge">
<title>transition_valid&#45;&gt;place_valid</title>
<path fill="none" stroke="#333333" d="M464.59,-348.2C464.97,-338.82 465.04,-328.59 464.79,-318.91"/>
<polygon fill="#333333" stroke="#333333" points="466.55,-319.09 464.63,-314.16 463.05,-319.21 466.55,-319.09"/>
</g>
<!-- transition_php_too_old&#45;&gt;place_php_is_too_old -->
<g id="edge22" class="edge">
<title>transition_php_too_old&#45;&gt;place_php_is_too_old</title>
<path fill="none" stroke="#333333" d="M186.53,-780.2C183.96,-770.82 181.16,-760.59 178.52,-750.91"/>
<polygon fill="#333333" stroke="#333333" points="180.21,-750.46 177.2,-746.1 176.83,-751.39 180.21,-750.46"/>
</g>
<!-- transition_php_okay&#45;&gt;place_php_ok -->
<g id="edge24" class="edge">
<title>transition_php_okay&#45;&gt;place_php_ok</title>
<path fill="none" stroke="#333333" d="M395.19,-780.2C395.19,-770.82 395.19,-760.59 395.19,-750.91"/>
<polygon fill="#333333" stroke="#333333" points="396.94,-751.16 395.19,-746.16 393.44,-751.16 396.94,-751.16"/>
</g>
<!-- transition_symfony_outdated&#45;&gt;place_outdated_symfony -->
<g id="edge26" class="edge">
<title>transition_symfony_outdated&#45;&gt;place_outdated_symfony</title>
<path fill="none" stroke="#333333" d="M190.88,-564.2C183.46,-553.85 175.31,-542.48 167.75,-531.95"/>
<polygon fill="#333333" stroke="#333333" points="169.31,-531.12 164.98,-528.08 166.47,-533.16 169.31,-531.12"/>
</g>
<!-- transition_symfony_okay&#45;&gt;place_symfony_ok -->
<g id="edge28" class="edge">
<title>transition_symfony_okay&#45;&gt;place_symfony_ok</title>
<path fill="none" stroke="#333333" d="M521.19,-564.2C521.19,-554.82 521.19,-544.59 521.19,-534.91"/>
<polygon fill="#333333" stroke="#333333" points="522.94,-535.16 521.19,-530.16 519.44,-535.16 522.94,-535.16"/>
</g>
<!-- transition_fetch_docs&#45;&gt;place_documented -->
<g id="edge30" class="edge">
<title>transition_fetch_docs&#45;&gt;place_documented</title>
<path fill="none" stroke="#333333" d="M539.84,-132.2C544.35,-122.64 549.27,-112.2 553.91,-102.36"/>
<polygon fill="#333333" stroke="#333333" points="555.41,-103.28 555.96,-98.01 552.25,-101.79 555.41,-103.28"/>
</g>
</g>
</svg>
